<svg width="144" height="144" viewBox="0 0 144 144" fill="none" xmlns="http://www.w3.org/2000/svg">
<g clip-path="url(#clip0_250_289)">
<path d="M134.295 48.585C134.295 50.6817 134.012 52.6083 133.445 54.365C132.935 56.1217 132.34 57.7083 131.66 59.125C130.98 60.5417 130.385 61.76 129.875 62.78C129.308 63.8 129.025 64.65 129.025 65.33C129.025 66.35 130.017 66.86 132 66.86V68.39H106.075V66.69C108.002 66.5767 110.155 66.2083 112.535 65.585C114.858 64.9617 117.182 64.1117 119.505 63.035C121.828 61.9583 123.953 60.6833 125.88 59.21C127.807 57.7367 129.365 56.1217 130.555 54.365C131.745 52.5517 132.34 50.625 132.34 48.585C132.34 45.2417 131.462 42.6633 129.705 40.85C127.892 39.0367 125.54 37.79 122.65 37.11C119.76 36.43 116.672 36.09 113.385 36.09C109.362 36.09 105.253 36.94 101.06 38.64C96.81 40.2833 92.56 42.4083 88.31 45.015C84.06 47.6217 79.9517 50.37 75.985 53.26C70.0917 57.3967 64.9067 60.6267 60.43 62.95C55.9533 65.2167 51.8733 66.8033 48.19 67.71C44.45 68.6167 40.7667 69.07 37.14 69.07C31.4167 69.07 26.6283 68.135 22.775 66.265C18.865 64.3383 15.9467 61.8733 14.02 58.87C12.0933 55.8667 11.13 52.665 11.13 49.265C11.13 46.715 11.4983 44.4767 12.235 42.55C12.915 40.6233 13.6233 39.0083 14.36 37.705C15.0967 36.345 15.465 35.2967 15.465 34.56C15.465 33.9933 15.295 33.5967 14.955 33.37C14.615 33.0867 13.9633 32.9167 13 32.86V31.33H38.67V33.03C36.2333 33.2 33.57 33.6533 30.68 34.39C27.7333 35.07 24.9283 36.0617 22.265 37.365C19.545 38.6683 17.335 40.3117 15.635 42.295C13.8783 44.2217 13 46.4883 13 49.095C13 52.0983 14.275 54.7333 16.825 57C19.3183 59.21 23.4267 60.315 29.15 60.315C32.55 60.315 35.95 59.805 39.35 58.785C42.75 57.765 46.405 56.1217 50.315 53.855C54.225 51.5317 58.7017 48.5 63.745 44.76C68.0517 41.4167 72.4717 38.4133 77.005 35.75C81.4817 33.03 86.0717 30.8767 90.775 29.29C95.4783 27.7033 100.38 26.91 105.48 26.91C109.957 26.91 113.98 27.4767 117.55 28.61C121.12 29.7433 124.152 31.3017 126.645 33.285C129.138 35.2683 131.037 37.5917 132.34 40.255C133.643 42.8617 134.295 45.6383 134.295 48.585Z" fill="#7517F3"/>
<path d="M7.11942 109V107.834H9.38542V79.366H7.11942V78.2H16.1834C16.9021 78.2 17.6428 78.3393 18.4054 78.618C19.1828 78.8967 19.9014 79.3587 20.5614 80.004C21.2214 80.6493 21.7568 81.522 22.1674 82.622C22.5928 83.7073 22.8054 85.0567 22.8054 86.67C22.8054 88.3273 22.5928 89.772 22.1674 91.004C21.7421 92.236 21.1921 93.2553 20.5174 94.062C19.8574 94.8687 19.1388 95.47 18.3614 95.866C17.5988 96.262 16.8728 96.46 16.1834 96.46H13.9614V107.834H16.2054V109H7.11942ZM13.9614 95.294H15.0614C15.5894 95.294 16.0734 94.9567 16.5134 94.282C16.9534 93.6073 17.3054 92.6247 17.5694 91.334C17.8334 90.0433 17.9654 88.4813 17.9654 86.648C17.9654 84.9173 17.8481 83.5167 17.6134 82.446C17.3788 81.3753 17.0561 80.598 16.6454 80.114C16.2348 79.6153 15.7654 79.366 15.2374 79.366H13.9614V95.294ZM24.6926 109V107.834H26.7606V79.366H24.6926V78.2H37.8266V85.218H36.6826C36.6826 84.03 36.5506 82.996 36.2866 82.116C36.0373 81.236 35.6559 80.5613 35.1426 80.092C34.6439 79.608 33.9839 79.366 33.1626 79.366H31.4246V93.006H35.4286V90.718H36.5726V96.394H35.4286V94.172H31.4246V107.834H33.1406C33.9473 107.834 34.6073 107.592 35.1206 107.108C35.6486 106.609 36.0373 105.92 36.2866 105.04C36.5506 104.145 36.6826 103.104 36.6826 101.916H37.8266V109H24.6926ZM43.1932 109V107.834H45.5252V79.366H44.6012C43.7652 79.366 43.1126 79.5933 42.6432 80.048C42.1886 80.488 41.8659 81.1407 41.6752 82.006C41.4992 82.8713 41.4112 83.942 41.4112 85.218H40.2452V78.2H55.4032V85.218H54.2372C54.2372 83.942 54.1419 82.8713 53.9512 82.006C53.7752 81.1407 53.4599 80.488 53.0052 80.048C52.5506 79.5933 51.8979 79.366 51.0472 79.366H50.1232V107.834H52.5432V109H43.1932ZM57.22 109V107.834H59.288V79.366H57.22V78.2H70.354V85.218H69.21C69.21 84.03 69.078 82.996 68.814 82.116C68.5646 81.236 68.1833 80.5613 67.67 80.092C67.1713 79.608 66.5113 79.366 65.69 79.366H63.952V93.006H67.956V90.718H69.1V96.394H67.956V94.172H63.952V107.834H65.668C66.4746 107.834 67.1346 107.592 67.648 107.108C68.176 106.609 68.5646 105.92 68.814 105.04C69.078 104.145 69.21 103.104 69.21 101.916H70.354V109H57.22ZM87.8426 109.374C86.6692 109.374 85.7892 109.095 85.2026 108.538C84.6306 107.981 84.2492 107.225 84.0586 106.272C83.8826 105.304 83.7946 104.204 83.7946 102.972C83.7946 102.136 83.8166 101.307 83.8606 100.486C83.9046 99.6647 83.9266 98.9313 83.9266 98.286C83.9266 97.1127 83.8386 96.2033 83.6626 95.558C83.5012 94.898 83.1932 94.4287 82.7386 94.15C82.2839 93.8713 81.6386 93.732 80.8026 93.732H79.7466V107.834H81.8586V109H72.9706V107.834H75.1706V79.366H72.9706V78.2H82.1666C83.4132 78.2 84.5352 78.4493 85.5326 78.948C86.5446 79.432 87.3439 80.202 87.9306 81.258C88.5172 82.2993 88.8106 83.6633 88.8106 85.35C88.8106 86.6553 88.6272 87.7773 88.2606 88.716C87.8939 89.6547 87.4099 90.432 86.8086 91.048C86.2072 91.664 85.5472 92.1407 84.8286 92.478C84.1246 92.8153 83.4279 93.028 82.7386 93.116C84.3519 93.1747 85.5692 93.4753 86.3906 94.018C87.2266 94.546 87.7912 95.338 88.0846 96.394C88.3926 97.45 88.5466 98.7993 88.5466 100.442C88.5466 101.146 88.5246 101.85 88.4806 102.554C88.4512 103.258 88.4366 103.925 88.4366 104.556C88.4366 105.04 88.4586 105.546 88.5026 106.074C88.5466 106.587 88.6272 107.02 88.7446 107.372C88.8619 107.724 89.0379 107.9 89.2726 107.9C89.4339 107.9 89.5586 107.834 89.6466 107.702C89.7492 107.57 89.8079 107.409 89.8226 107.218H90.9006C90.8419 107.717 90.6659 108.127 90.3726 108.45C90.0939 108.758 89.7346 108.985 89.2946 109.132C88.8546 109.293 88.3706 109.374 87.8426 109.374ZM79.7466 92.566H81.0666C81.7852 92.566 82.3572 92.258 82.7826 91.642C83.2226 91.0113 83.5452 90.1607 83.7506 89.09C83.9706 88.0193 84.0806 86.802 84.0806 85.438C84.0806 84.162 83.9852 83.0693 83.7946 82.16C83.6186 81.2507 83.3179 80.5613 82.8926 80.092C82.4672 79.608 81.8952 79.366 81.1766 79.366H79.7466V92.566ZM92.1965 109V107.834H94.2645V79.366H92.1965V78.2H105.331V85.218H104.187C104.187 84.03 104.055 82.996 103.791 82.116C103.541 81.236 103.16 80.5613 102.647 80.092C102.148 79.608 101.488 79.366 100.667 79.366H98.9285V93.006H102.933V90.718H104.077V96.394H102.933V94.172H98.9285V107.834H100.645C101.451 107.834 102.111 107.592 102.625 107.108C103.153 106.609 103.541 105.92 103.791 105.04C104.055 104.145 104.187 103.104 104.187 101.916H105.331V109H92.1965ZM106.825 109V107.834H108.695L113.095 78.156H115.251L120.069 107.834H122.093V109H113.249V107.834H115.097L112.479 88.936H112.589L109.927 107.834H111.533V109H106.825ZM110.169 102.708V101.608H115.031V102.708H110.169ZM129.638 109.528C128.978 109.528 128.289 109.425 127.57 109.22C126.866 109.015 126.206 108.641 125.59 108.098C124.974 107.541 124.475 106.756 124.094 105.744C123.713 104.732 123.522 103.419 123.522 101.806V79.366H121.388V78.2H130.342V79.366H128.208V101.916C128.208 104.043 128.421 105.597 128.846 106.58C129.271 107.563 129.939 108.054 130.848 108.054C131.2 108.054 131.552 107.981 131.904 107.834C132.271 107.673 132.601 107.394 132.894 106.998C133.202 106.602 133.444 106.052 133.62 105.348C133.796 104.644 133.884 103.735 133.884 102.62V79.366H131.97V78.2H137.162V79.366H135.072V102.62C135.072 104.453 134.837 105.869 134.368 106.866C133.899 107.863 133.253 108.56 132.432 108.956C131.625 109.337 130.694 109.528 129.638 109.528Z" fill="#7517F3"/>
</g>
<defs>
<clipPath id="clip0_250_289">
<rect width="144" height="144" fill="white"/>
</clipPath>
</defs>
</svg>
