<?xml version="1.0" encoding="UTF-8" standalone="no"?>
<!-- Created with Inkscape (http://www.inkscape.org/) -->

<svg
   width="102.00002"
   height="37.429443"
   viewBox="0 0 26.987505 9.903206"
   version="1.1"
   id="svg5"
   xml:space="preserve"
   inkscape:version="1.2.1 (9c6d41e410, 2022-07-14)"
   sodipodi:docname="logo--full.svg"
   inkscape:export-filename="..\..\..\..\dev\cours\openclassrooms\projets\developpeur_web\session_8-portfolio\logo1.png"
   inkscape:export-xdpi="96"
   inkscape:export-ydpi="96"
   xmlns:inkscape="http://www.inkscape.org/namespaces/inkscape"
   xmlns:sodipodi="http://sodipodi.sourceforge.net/DTD/sodipodi-0.dtd"
   xmlns="http://www.w3.org/2000/svg"
   xmlns:svg="http://www.w3.org/2000/svg"><sodipodi:namedview
     id="namedview7"
     pagecolor="#ffffff"
     bordercolor="#000000"
     borderopacity="0.25"
     inkscape:showpageshadow="2"
     inkscape:pageopacity="0.0"
     inkscape:pagecheckerboard="0"
     inkscape:deskcolor="#d1d1d1"
     inkscape:document-units="px"
     showgrid="false"
     inkscape:zoom="8.5971031"
     inkscape:cx="65.429016"
     inkscape:cy="32.161997"
     inkscape:window-width="1920"
     inkscape:window-height="1051"
     inkscape:window-x="-9"
     inkscape:window-y="-9"
     inkscape:window-maximized="1"
     inkscape:current-layer="svg5" /><defs
     id="defs2"><rect
       x="1243.0938"
       y="28.991379"
       width="108.89444"
       height="145.664"
       id="rect1127" /><inkscape:path-effect
       effect="fill_between_many"
       method="originald"
       linkedpaths="#path1878,0,1|#path1932,0,1"
       id="path-effect1940"
       is_visible="true"
       lpeversion="0"
       join="true"
       close="true"
       autoreverse="true" /></defs><rect
     style="fill:#ffffff;fill-opacity:1;fill-rule:evenodd;stroke:none;stroke-width:0.9;stroke-linecap:round;stroke-linejoin:miter;stroke-miterlimit:0;stroke-dasharray:none;stroke-opacity:1;paint-order:fill markers stroke"
     id="rect345"
     width="0.095891878"
     height="9.7090244"
     x="11.088966"
     y="0.12310348" /><path
     id="path347"
     style="font-weight:900;font-size:3.78409px;font-family:'dT Jakob Variable Concept';-inkscape-font-specification:'dT Jakob Variable Concept Heavy';letter-spacing:-0.321647px;fill:#ffffff;fill-rule:evenodd;stroke-width:0.9;stroke-linecap:round;stroke-miterlimit:0;paint-order:fill markers stroke"
     d="m 13.711334,1.9410963 c -0.108387,0 -0.2049,0.020133 -0.289887,0.060499 -0.08294,0.038241 -0.147805,0.093585 -0.19456,0.1658387 -0.04661,0.070124 -0.07009,0.1506407 -0.07009,0.2420122 0,0.076499 0.0183,0.1469247 0.05446,0.2106723 0.03821,0.063758 0.08411,0.1200071 0.137108,0.1688851 0.05518,0.046732 0.125235,0.1020992 0.210212,0.1658406 l 0.0035,0.00313 c 0.0849,0.061625 0.152215,0.1137678 0.201097,0.1562639 0.04883,0.042491 0.08911,0.091433 0.120984,0.146688 0.03402,0.055231 0.05089,0.1165578 0.05089,0.1845547 0,0.1381202 -0.04794,0.246529 -0.143609,0.3251506 -0.08375,0.068794 -0.194873,0.1076161 -0.333857,0.1162151 -0.01991,0.00133 -0.04035,0.0017 -0.06133,0.0017 -0.118975,0 -0.23245,-0.014661 -0.340811,-0.044402 l -0.0192,0.057027 c 0.123243,0.034009 0.243103,0.051366 0.359962,0.051366 0.01143,0 0.02329,-5.411e-4 0.03446,-7.955e-4 0.01125,-3.573e-4 0.02268,-5.527e-4 0.03348,-0.00133 0.153376,-0.010026 0.277324,-0.054982 0.372132,-0.1349337 0.04402,-0.037125 0.07919,-0.079464 0.105351,-0.1271025 0.0019,-0.00367 0.0035,-0.00759 0.0054,-0.011375 0.03437,-0.067089 0.05133,-0.1443112 0.05133,-0.2315658 0,-0.00465 1.34e-4,-0.00917 0,-0.013937 -0.0026,-0.070839 -0.02117,-0.1354899 -0.05705,-0.1932617 -0.03607,-0.063741 -0.08098,-0.118649 -0.134057,-0.1654022 -0.05321,-0.046741 -0.12218,-0.1020991 -0.207184,-0.1658395 -0.08911,-0.064294 -0.161956,-0.1230544 -0.218935,-0.1762852 -0.0044,-0.00491 -0.01027,-0.00966 -0.01527,-0.014366 -0.0099,-0.00954 -0.0192,-0.018722 -0.02794,-0.027839 -0.0035,-0.00465 -0.0092,-0.00942 -0.01304,-0.013937 -0.0035,-0.00456 -0.0072,-0.00875 -0.0117,-0.013063 -0.06161,-0.070124 -0.09226,-0.1542745 -0.09226,-0.2520219 0,-0.00759 8.9e-5,-0.01483 4.19e-4,-0.022196 0.0026,-0.055402 0.01473,-0.1059035 0.03696,-0.1510389 0.0019,-0.00313 0.0035,-0.00563 0.0044,-0.00875 0.02196,-0.041481 0.05241,-0.078455 0.09138,-0.1109919 0.0054,-0.00456 0.01133,-0.00909 0.01741,-0.013491 0.08892,-0.065374 0.202052,-0.098369 0.3395,-0.098369 0.07268,0 0.143581,0.005 0.212845,0.014813 0.0099,0.00143 0.01981,0.00285 0.02955,0.00437 l 0.01276,-0.060499 c -0.0786,-0.014896 -0.163648,-0.022199 -0.255009,-0.022199 z m 1.657445,0.031768 -0.780832,1.899972 0.07009,0.00313 0.07009,-0.1784654 h 1.341909 l 0.06696,0.1754163 h 0.07009 l -0.76816,-1.899928 z m 8.780935,0 -0.780858,1.899972 0.07009,0.00313 0.07009,-0.1784654 h 1.341917 l 0.06705,0.1754163 h 0.07009 L 24.219845,1.9729397 Z m -7.209627,0.028731 v 1.8934399 h 0.06402 V 2.1099818 l 1.434173,1.7850597 h 0.0574 V 2.0016011 H 18.43166 V 3.786657 L 16.99749,2.0015966 Z m 4.471847,0.0067 v 1.8869104 h 0.06357 V 3.1430171 h 0.51666 l 0.468331,0.7521542 h 0.07652 L 22.058649,3.1334395 c 0.150867,-0.0255 0.268888,-0.087258 0.353865,-0.1849896 0.01054,-0.012472 0.02072,-0.025491 0.03,-0.038731 0.0035,-0.0067 0.0092,-0.013206 0.01348,-0.020027 0.05607,-0.088579 0.08411,-0.1934135 0.08411,-0.3142669 0,-0.00535 1.07e-4,-0.010769 0,-0.016107 -0.0026,-0.1062089 -0.02643,-0.1984571 -0.07285,-0.2772707 -0.0026,-0.00402 -0.0035,-0.00785 -0.0063,-0.01175 -0.02419,-0.038723 -0.05402,-0.073892 -0.08927,-0.1057687 C 22.259051,2.06041 22.109004,2.0082614 21.922024,2.0082614 Z m -2.151482,0.00598 v 1.8646741 h 0.538847 c 0.178481,0 0.336749,-0.03933 0.474867,-0.1179642 0.140242,-0.08074 0.248656,-0.1932787 0.325143,-0.3377721 0.07866,-0.1444933 0.117967,-0.3091731 0.117967,-0.4940367 0,-0.1848663 -0.03617,-0.3454167 -0.108396,-0.4814129 C 20.536567,2.3096519 20.432353,2.203518 20.29637,2.1291472 20.162493,2.0526482 20.005154,2.0142286 19.824539,2.0142286 Z m -3.856397,0.044848 0.64375,1.5743846 h -1.294019 z m 8.780935,0 0.643724,1.5743846 h -1.29401 z m -2.709505,0.012625 h 0.446145 c 0.17,0 0.30493,0.045741 0.4048,0.137113 0.09987,0.08924 0.150161,0.2113831 0.150161,0.3664996 0,0.1551183 -0.05018,0.2786119 -0.150161,0.3699843 -0.09987,0.089249 -0.235737,0.1349845 -0.407835,0.1371104 l -0.44311,-0.00357 z m -2.151054,0.0067 h 0.500117 c 0.16999,0 0.316812,0.035214 0.440046,0.105341 0.125369,0.068008 0.220963,0.1668013 0.286834,0.2964198 0.06804,0.1274961 0.101851,0.2770868 0.101851,0.449205 0,0.1742377 -0.03607,0.3283936 -0.108369,0.4622612 -0.07231,0.1338684 -0.17333,0.2390747 -0.30293,0.3155722 -0.127502,0.074356 -0.274806,0.1114321 -0.442681,0.1114321 l -0.474868,-0.00313 z m 4.593735,3.9862387 -0.78086,1.8999701 0.07009,0.00313 0.07009,-0.1784591 h 1.341919 l 0.06696,0.1754154 h 0.07009 L 23.988215,6.0646667 Z M 13.043208,6.093428 v 1.8934274 h 0.06357 V 7.3300579 h 0.475314 c 0.0054,0 0.01196,1.107e-4 0.01785,0 0.0054,-1.124e-4 0.01196,-2.178e-4 0.01794,-4.357e-4 0.106003,-0.00402 0.199642,-0.025696 0.280752,-0.065285 0.0035,-0.00215 0.008,-0.00465 0.01304,-0.00696 0.04875,-0.02542 0.09287,-0.057482 0.132332,-0.09619 0.08402,-0.080955 0.13784,-0.1809725 0.161465,-0.3003385 6.07e-4,-0.00519 0.0026,-0.010402 0.0035,-0.015652 0.0072,-0.042098 0.01089,-0.086445 0.01089,-0.1331951 0,-0.1232473 -0.02563,-0.2316526 -0.07652,-0.3251499 -0.05107,-0.093501 -0.124234,-0.1657835 -0.219854,-0.2167786 -0.0935,-0.051 -0.201899,-0.076616 -0.325151,-0.076616 z m 1.861159,0 v 1.8934372 h 0.895774 v -0.063973 l -0.831786,0.00357 V 7.0659518 h 0.793492 V 7.0019528 H 14.968355 V 6.1574901 h 0.831786 v -0.063982 z m 3.129955,0 v 1.8934274 h 0.895765 v -0.063999 l -0.831777,0.00357 V 7.0659349 h 0.793467 V 7.0019531 H 18.09831 V 6.1574918 h 0.831777 v -0.063981 z m 3.496446,0 v 1.8934274 h 0.895764 v -0.063999 l -0.831786,0.00357 v -0.860541 h 0.793484 v -0.063978 h -0.793484 v -0.844463 h 0.831786 v -0.063981 z m 3.862934,0 v 1.2688211 c 0,0.1296177 0.02785,0.2430747 0.08321,0.340822 0.0574,0.097745 0.138823,0.1732174 0.245058,0.2263411 0.106261,0.053106 0.229728,0.079651 0.369971,0.079651 0.138109,0 0.259325,-0.026544 0.363445,-0.079651 0.106252,-0.053106 0.186757,-0.1285963 0.242004,-0.2263411 0.05731,-0.097744 0.08624,-0.2112043 0.08624,-0.340822 v -1.26884 h -0.06402 v 1.2687608 c 0,0.1806153 -0.05624,0.3228837 -0.168892,0.4270052 -0.05285,0.048812 -0.11444,0.085928 -0.18499,0.1118731 -0.07053,0.025919 -0.149805,0.040491 -0.238077,0.043535 -0.01187,4.045e-4 -0.02367,7.947e-4 -0.03571,7.947e-4 -0.195489,0 -0.350543,-0.052152 -0.465286,-0.1562638 C 25.514026,7.6850089 25.457779,7.5427396 25.457779,7.3621224 V 6.093312 Z m -5.749798,0.0067 v 1.8869118 h 0.06402 V 7.2348817 h 0.516205 l 0.468349,0.752155 h 0.07652 L 20.291093,7.2252344 c 0.15085,-0.0255 0.26887,-0.087258 0.353848,-0.1849904 0.01054,-0.012473 0.02035,-0.025491 0.02965,-0.038723 0.0044,-0.0067 0.0092,-0.013205 0.01348,-0.020009 0.05607,-0.088597 0.08402,-0.1934136 0.08402,-0.3142652 0,-0.00535 1.26e-4,-0.010769 0,-0.016107 C 20.768491,6.4865283 20.712171,6.355158 20.603201,6.2563482 20.490592,6.1522302 20.34101,6.1000826 20.154012,6.1000826 Z m -3.266607,0.0067 v 0.063571 h 0.503151 v 1.8168325 h 0.06411 V 6.1699334 h 0.500562 v -0.063553 z m 7.575678,0.044402 0.644198,1.5743863 h -1.294028 z m -10.846216,0.0067 h 0.490973 c 0.169982,0 0.304931,0.050768 0.404783,0.1527808 0.102002,0.099872 0.153224,0.2338891 0.153224,0.4017582 0,0.1699896 -0.05196,0.3049331 -0.15626,0.4048045 -0.09562,0.093634 -0.2238,0.1434461 -0.384783,0.1492978 -0.0044,1.929e-4 -0.01107,3.376e-4 -0.01661,4.339e-4 -0.0054,9.92e-5 -0.01054,0 -0.01607,0 H 13.10672 Z m 6.601134,0.00598 h 0.446145 c 0.169982,0 0.304931,0.045741 0.404791,0.1371114 0.09985,0.089258 0.149724,0.2113821 0.149724,0.3664986 0,0.1551191 -0.04991,0.2786119 -0.149724,0.3699834 -0.09984,0.089249 -0.235728,0.1349863 -0.407843,0.1371113 l -0.443093,-0.00357 z" /><path
     id="path349"
     style="font-weight:900;font-size:3.78409px;font-family:'dT Jakob Variable Concept';-inkscape-font-specification:'dT Jakob Variable Concept Heavy';letter-spacing:-0.321647px;fill:#ffffff;fill-rule:evenodd;stroke:#ffffff;stroke-width:0.0264581;stroke-linecap:round;stroke-miterlimit:0;stroke-dasharray:none;stroke-opacity:1;paint-order:fill markers stroke"
     d="m 13.711334,1.9410963 c -0.108387,0 -0.2049,0.020133 -0.289887,0.060499 -0.08294,0.038241 -0.147805,0.093585 -0.19456,0.1658387 -0.04661,0.070124 -0.07009,0.1506407 -0.07009,0.2420122 0,0.076499 0.0183,0.1469247 0.05446,0.2106723 0.03821,0.063758 0.08411,0.1200071 0.137108,0.1688851 0.05518,0.046732 0.125235,0.1020992 0.210212,0.1658406 l 0.0035,0.00313 c 0.0849,0.061625 0.152215,0.1137678 0.201097,0.1562639 0.04883,0.042491 0.08911,0.091433 0.120984,0.146688 0.03402,0.055231 0.05089,0.1165578 0.05089,0.1845547 0,0.1381202 -0.04794,0.246529 -0.143609,0.3251506 -0.08375,0.068794 -0.194873,0.1076161 -0.333857,0.1162151 -0.01991,0.00133 -0.04035,0.0017 -0.06133,0.0017 -0.118975,0 -0.23245,-0.014661 -0.340811,-0.044402 l -0.0192,0.057027 c 0.123243,0.034009 0.243103,0.051366 0.359962,0.051366 0.01143,0 0.02329,-5.411e-4 0.03446,-7.955e-4 0.01125,-3.573e-4 0.02268,-5.527e-4 0.03348,-0.00133 0.153376,-0.010026 0.277324,-0.054982 0.372132,-0.1349337 0.04402,-0.037125 0.07919,-0.079464 0.105351,-0.1271025 0.0019,-0.00367 0.0035,-0.00759 0.0054,-0.011375 0.03437,-0.067089 0.05133,-0.1443112 0.05133,-0.2315658 0,-0.00465 1.34e-4,-0.00917 0,-0.013937 -0.0026,-0.070839 -0.02117,-0.1354899 -0.05705,-0.1932617 -0.03607,-0.063741 -0.08098,-0.118649 -0.134057,-0.1654022 -0.05321,-0.046741 -0.12218,-0.1020991 -0.207184,-0.1658395 -0.08911,-0.064294 -0.161956,-0.1230544 -0.218935,-0.1762852 -0.0044,-0.00491 -0.01027,-0.00966 -0.01527,-0.014366 -0.0099,-0.00954 -0.0192,-0.018722 -0.02794,-0.027839 -0.0035,-0.00465 -0.0092,-0.00942 -0.01304,-0.013937 -0.0035,-0.00456 -0.0072,-0.00875 -0.0117,-0.013063 -0.06161,-0.070124 -0.09226,-0.1542745 -0.09226,-0.2520219 0,-0.00759 8.9e-5,-0.01483 4.19e-4,-0.022196 0.0026,-0.055402 0.01473,-0.1059035 0.03696,-0.1510389 0.0019,-0.00313 0.0035,-0.00563 0.0044,-0.00875 0.02196,-0.041481 0.05241,-0.078455 0.09138,-0.1109919 0.0054,-0.00456 0.01133,-0.00909 0.01741,-0.013491 0.08892,-0.065374 0.202052,-0.098369 0.3395,-0.098369 0.07268,0 0.143581,0.005 0.212845,0.014813 0.0099,0.00143 0.01981,0.00285 0.02955,0.00437 l 0.01276,-0.060499 c -0.0786,-0.014896 -0.163648,-0.022199 -0.255009,-0.022199 z m 1.657445,0.031768 -0.780832,1.899972 0.07009,0.00313 0.07009,-0.1784654 h 1.341909 l 0.06696,0.1754163 h 0.07009 l -0.76816,-1.899928 z m 8.780935,0 -0.780858,1.899972 0.07009,0.00313 0.07009,-0.1784654 h 1.341917 l 0.06705,0.1754163 h 0.07009 L 24.219845,1.9729397 Z m -7.209627,0.028731 v 1.8934399 h 0.06402 V 2.1099818 l 1.434173,1.7850597 h 0.0574 V 2.0016011 H 18.43166 V 3.786657 L 16.99749,2.0015966 Z m 4.471847,0.0067 v 1.8869104 h 0.06357 V 3.1430171 h 0.51666 l 0.468331,0.7521542 h 0.07652 L 22.058649,3.1334395 c 0.150867,-0.0255 0.268888,-0.087258 0.353865,-0.1849896 0.01054,-0.012472 0.02072,-0.025491 0.03,-0.038731 0.0035,-0.0067 0.0092,-0.013206 0.01348,-0.020027 0.05607,-0.088579 0.08411,-0.1934135 0.08411,-0.3142669 0,-0.00535 1.07e-4,-0.010769 0,-0.016107 -0.0026,-0.1062089 -0.02643,-0.1984571 -0.07285,-0.2772707 -0.0026,-0.00402 -0.0035,-0.00785 -0.0063,-0.01175 -0.02419,-0.038723 -0.05402,-0.073892 -0.08927,-0.1057687 C 22.259051,2.06041 22.109004,2.0082614 21.922024,2.0082614 Z m -2.151482,0.00598 v 1.8646741 h 0.538847 c 0.178481,0 0.336749,-0.03933 0.474867,-0.1179642 0.140242,-0.08074 0.248656,-0.1932787 0.325143,-0.3377721 0.07866,-0.1444933 0.117967,-0.3091731 0.117967,-0.4940367 0,-0.1848663 -0.03617,-0.3454167 -0.108396,-0.4814129 C 20.536567,2.3096519 20.432353,2.203518 20.29637,2.1291472 20.162493,2.0526482 20.005154,2.0142286 19.824539,2.0142286 Z m -3.856397,0.044848 0.64375,1.5743846 h -1.294019 z m 8.780935,0 0.643724,1.5743846 h -1.29401 z m -2.709505,0.012625 h 0.446145 c 0.17,0 0.30493,0.045741 0.4048,0.137113 0.09987,0.08924 0.150161,0.2113831 0.150161,0.3664996 0,0.1551183 -0.05018,0.2786119 -0.150161,0.3699843 -0.09987,0.089249 -0.235737,0.1349845 -0.407835,0.1371104 l -0.44311,-0.00357 z m -2.151054,0.0067 h 0.500117 c 0.16999,0 0.316812,0.035214 0.440046,0.105341 0.125369,0.068008 0.220963,0.1668013 0.286834,0.2964198 0.06804,0.1274961 0.101851,0.2770868 0.101851,0.449205 0,0.1742377 -0.03607,0.3283936 -0.108369,0.4622612 -0.07231,0.1338684 -0.17333,0.2390747 -0.30293,0.3155722 -0.127502,0.074356 -0.274806,0.1114321 -0.442681,0.1114321 l -0.474868,-0.00313 z m 4.593735,3.9862387 -0.78086,1.8999701 0.07009,0.00313 0.07009,-0.1784591 h 1.341919 l 0.06696,0.1754154 h 0.07009 L 23.988215,6.0646667 Z M 13.043208,6.093428 v 1.8934274 h 0.06357 V 7.3300579 h 0.475314 c 0.0054,0 0.01196,1.107e-4 0.01785,0 0.0054,-1.124e-4 0.01196,-2.178e-4 0.01794,-4.357e-4 0.106003,-0.00402 0.199642,-0.025696 0.280752,-0.065285 0.0035,-0.00215 0.008,-0.00465 0.01304,-0.00696 0.04875,-0.02542 0.09287,-0.057482 0.132332,-0.09619 0.08402,-0.080955 0.13784,-0.1809725 0.161465,-0.3003385 6.07e-4,-0.00519 0.0026,-0.010402 0.0035,-0.015652 0.0072,-0.042098 0.01089,-0.086445 0.01089,-0.1331951 0,-0.1232473 -0.02563,-0.2316526 -0.07652,-0.3251499 -0.05107,-0.093501 -0.124234,-0.1657835 -0.219854,-0.2167786 -0.0935,-0.051 -0.201899,-0.076616 -0.325151,-0.076616 z m 1.861159,0 v 1.8934372 h 0.895774 v -0.063973 l -0.831786,0.00357 V 7.0659518 h 0.793492 V 7.0019528 H 14.968355 V 6.1574901 h 0.831786 v -0.063982 z m 3.129955,0 v 1.8934274 h 0.895765 v -0.063999 l -0.831777,0.00357 V 7.0659349 h 0.793467 V 7.0019531 H 18.09831 V 6.1574918 h 0.831777 v -0.063981 z m 3.496446,0 v 1.8934274 h 0.895764 v -0.063999 l -0.831786,0.00357 v -0.860541 h 0.793484 v -0.063978 h -0.793484 v -0.844463 h 0.831786 v -0.063981 z m 3.862934,0 v 1.2688211 c 0,0.1296177 0.02785,0.2430747 0.08321,0.340822 0.0574,0.097745 0.138823,0.1732174 0.245058,0.2263411 0.106261,0.053106 0.229728,0.079651 0.369971,0.079651 0.138109,0 0.259325,-0.026544 0.363445,-0.079651 0.106252,-0.053106 0.186757,-0.1285963 0.242004,-0.2263411 0.05731,-0.097744 0.08624,-0.2112043 0.08624,-0.340822 v -1.26884 h -0.06402 v 1.2687608 c 0,0.1806153 -0.05624,0.3228837 -0.168892,0.4270052 -0.05285,0.048812 -0.11444,0.085928 -0.18499,0.1118731 -0.07053,0.025919 -0.149805,0.040491 -0.238077,0.043535 -0.01187,4.045e-4 -0.02367,7.947e-4 -0.03571,7.947e-4 -0.195489,0 -0.350543,-0.052152 -0.465286,-0.1562638 C 25.514026,7.6850089 25.457779,7.5427396 25.457779,7.3621224 V 6.093312 Z m -5.749798,0.0067 v 1.8869118 h 0.06402 V 7.2348817 h 0.516205 l 0.468349,0.752155 h 0.07652 L 20.291093,7.2252344 c 0.15085,-0.0255 0.26887,-0.087258 0.353848,-0.1849904 0.01054,-0.012473 0.02035,-0.025491 0.02965,-0.038723 0.0044,-0.0067 0.0092,-0.013205 0.01348,-0.020009 0.05607,-0.088597 0.08402,-0.1934136 0.08402,-0.3142652 0,-0.00535 1.26e-4,-0.010769 0,-0.016107 C 20.768491,6.4865283 20.712171,6.355158 20.603201,6.2563482 20.490592,6.1522302 20.34101,6.1000826 20.154012,6.1000826 Z m -3.266607,0.0067 v 0.063571 h 0.503151 v 1.8168325 h 0.06411 V 6.1699334 h 0.500562 v -0.063553 z m 7.575678,0.044402 0.644198,1.5743863 h -1.294028 z m -10.846216,0.0067 h 0.490973 c 0.169982,0 0.304931,0.050768 0.404783,0.1527808 0.102002,0.099872 0.153224,0.2338891 0.153224,0.4017582 0,0.1699896 -0.05196,0.3049331 -0.15626,0.4048045 -0.09562,0.093634 -0.2238,0.1434461 -0.384783,0.1492978 -0.0044,1.929e-4 -0.01107,3.376e-4 -0.01661,4.339e-4 -0.0054,9.92e-5 -0.01054,0 -0.01607,0 H 13.10672 Z m 6.601134,0.00598 h 0.446145 c 0.169982,0 0.304931,0.045741 0.404791,0.1371114 0.09985,0.089258 0.149724,0.2113821 0.149724,0.3664986 0,0.1551191 -0.04991,0.2786119 -0.149724,0.3699834 -0.09984,0.089249 -0.235728,0.1349863 -0.407843,0.1371113 l -0.443093,-0.00357 z" /><path
     id="ellipse351"
     style="fill:#ffffff;fill-opacity:1;fill-rule:evenodd;stroke:none;stroke-width:0.199999;stroke-linecap:round;stroke-miterlimit:0;stroke-dasharray:none;stroke-opacity:1;paint-order:fill markers stroke"
     d="M 4.7898882 0.53071693 A 4.4515619 4.4517102 0 0 0 0.33848061 4.9826413 A 4.4515619 4.4517102 0 0 0 4.7898882 9.4345656 A 4.4515619 4.4517102 0 0 0 9.2418126 4.9826413 A 4.4515619 4.4517102 0 0 0 4.7898882 0.53071693 z M 4.8002235 1.056783 L 8.0294835 6.6771114 L 3.5723915 3.1946368 C 3.575668 3.1886555 4.8002235 1.056783 4.8002235 1.056783 z M 2.6215452 2.7197305 L 8.2413569 6.9985388 L 2.6256794 4.8214108 L 2.6215452 2.7197305 z M 7.6744665 3.6044309 L 8.2852819 6.8362748 C 8.2826571 6.832107 6.8088863 4.2260984 6.8088863 4.2260984 L 7.6744665 3.6044309 z M 1.2851928 4.5459755 L 8.3410924 7.1773392 L 1.284676 7.177856 L 1.2851928 4.5459755 z " /></svg>
