<?xml version="1.0" encoding="UTF-8" standalone="no"?>
<!-- Created with Inkscape (http://www.inkscape.org/) -->

<svg
   width="40"
   height="40.000004"
   viewBox="0 0 10.583334 10.583333"
   version="1.1"
   id="svg5"
   xml:space="preserve"
   inkscape:version="1.2.1 (9c6d41e410, 2022-07-14)"
   sodipodi:docname="logo--simple.svg"
   inkscape:export-filename="..\..\..\..\dev\cours\openclassrooms\projets\developpeur_web\session_8-portfolio\logo1.png"
   inkscape:export-xdpi="96"
   inkscape:export-ydpi="96"
   xmlns:inkscape="http://www.inkscape.org/namespaces/inkscape"
   xmlns:sodipodi="http://sodipodi.sourceforge.net/DTD/sodipodi-0.dtd"
   xmlns="http://www.w3.org/2000/svg"
   xmlns:svg="http://www.w3.org/2000/svg"><sodipodi:namedview
     id="namedview7"
     pagecolor="#ffffff"
     bordercolor="#000000"
     borderopacity="0.25"
     inkscape:showpageshadow="2"
     inkscape:pageopacity="0.0"
     inkscape:pagecheckerboard="0"
     inkscape:deskcolor="#d1d1d1"
     inkscape:document-units="mm"
     showgrid="false"
     inkscape:zoom="8.5971032"
     inkscape:cx="-4.3619344"
     inkscape:cy="17.738533"
     inkscape:window-width="1920"
     inkscape:window-height="1051"
     inkscape:window-x="-9"
     inkscape:window-y="-9"
     inkscape:window-maximized="1"
     inkscape:current-layer="svg5" /><defs
     id="defs2"><rect
       x="1243.0938"
       y="28.991379"
       width="108.89444"
       height="145.664"
       id="rect1127" /><inkscape:path-effect
       effect="fill_between_many"
       method="originald"
       linkedpaths="#path1878,0,1|#path1932,0,1"
       id="path-effect1940"
       is_visible="true"
       lpeversion="0"
       join="true"
       close="true"
       autoreverse="true" /></defs><path
     id="ellipse345"
     style="fill:#ffffff;fill-opacity:1;fill-rule:evenodd;stroke:none;stroke-width:0.2;stroke-linecap:round;stroke-miterlimit:0;stroke-dasharray:none;stroke-opacity:1;paint-order:fill markers stroke"
     d="M 5.2027832 0.39997559 A 4.8947911 4.8947916 0 0 0 0.30799154 5.2947673 A 4.8947911 4.8947916 0 0 0 5.2027832 10.189559 A 4.8947911 4.8947916 0 0 0 10.097575 5.2947673 A 4.8947911 4.8947916 0 0 0 5.2027832 0.39997559 z M 5.214152 0.97823486 L 8.7643229 7.1577026 L 3.8638468 3.3289958 C 3.867445 3.3224191 5.214152 0.97823486 5.214152 0.97823486 z M 2.8179159 2.8070638 L 8.9968669 7.5116862 L 2.8225667 5.1180339 L 2.8179159 2.8070638 z M 8.3741659 3.7796143 L 9.0454427 7.3328857 C 9.0425567 7.3283032 7.422286 4.4627767 7.422286 4.4627767 L 8.3741659 3.7796143 z M 1.3487549 4.8146932 L 9.1069377 7.7080566 L 1.3482381 7.7085734 L 1.3487549 4.8146932 z " /></svg>
