<?xml version="1.0" encoding="UTF-8" standalone="no"?>
<!-- Created with Inkscape (http://www.inkscape.org/) -->

<svg
   width="87.203224"
   height="32.000004"
   viewBox="0 0 23.07252 8.4666669"
   version="1.1"
   id="svg5"
   xml:space="preserve"
   inkscape:version="1.2.1 (9c6d41e410, 2022-07-14)"
   sodipodi:docname="charte-graphique.svg"
   inkscape:export-filename="..\..\..\..\dev\cours\openclassrooms\projets\developpeur_web\session_8-portfolio\logo1.png"
   inkscape:export-xdpi="96"
   inkscape:export-ydpi="96"
   xmlns:inkscape="http://www.inkscape.org/namespaces/inkscape"
   xmlns:sodipodi="http://sodipodi.sourceforge.net/DTD/sodipodi-0.dtd"
   xmlns="http://www.w3.org/2000/svg"
   xmlns:svg="http://www.w3.org/2000/svg"><sodipodi:namedview
     id="namedview7"
     pagecolor="#ffffff"
     bordercolor="#000000"
     borderopacity="0.25"
     inkscape:showpageshadow="2"
     inkscape:pageopacity="0.0"
     inkscape:pagecheckerboard="0"
     inkscape:deskcolor="#d1d1d1"
     inkscape:document-units="mm"
     showgrid="false"
     inkscape:zoom="8.5971029"
     inkscape:cx="41.932731"
     inkscape:cy="32.045679"
     inkscape:window-width="1920"
     inkscape:window-height="1051"
     inkscape:window-x="-9"
     inkscape:window-y="-9"
     inkscape:window-maximized="1"
     inkscape:current-layer="svg5" /><defs
     id="defs2"><rect
       x="1243.0938"
       y="28.991379"
       width="108.89444"
       height="145.664"
       id="rect1127" /><inkscape:path-effect
       effect="fill_between_many"
       method="originald"
       linkedpaths="#path1878,0,1|#path1932,0,1"
       id="path-effect1940"
       is_visible="true"
       lpeversion="0"
       join="true"
       close="true"
       autoreverse="true" /></defs><rect
     style="fill:#ffffff;fill-opacity:1;fill-rule:evenodd;stroke:none;stroke-width:0.899999;stroke-linecap:round;stroke-linejoin:miter;stroke-miterlimit:0;stroke-dasharray:none;stroke-opacity:1;paint-order:fill markers stroke"
     id="rect665"
     width="0.078385897"
     height="7.9375"
     x="9.1571541"
     y="0.27698284" /><path
     id="path669"
     style="font-weight:900;font-size:3.78409px;font-family:'dT Jakob Variable Concept';-inkscape-font-specification:'dT Jakob Variable Concept Heavy';letter-spacing:-0.321647px;fill:#ffffff;fill-rule:evenodd;stroke-width:0.899999;stroke-linecap:round;stroke-miterlimit:0;paint-order:fill markers stroke"
     d="m 11.300779,1.7632596 c -0.0886,0 -0.167492,0.016457 -0.236966,0.049464 -0.06778,0.031265 -0.120822,0.076512 -0.159044,0.1355807 -0.03814,0.057328 -0.05728,0.1231536 -0.05728,0.1978537 0,0.062543 0.01492,0.1201171 0.04449,0.1722335 0.03121,0.052114 0.0687,0.098114 0.112081,0.13807 0.04514,0.038207 0.102367,0.083466 0.171833,0.13558 l 0.0029,0.0025 c 0.06942,0.050378 0.124428,0.093005 0.164386,0.1277514 0.03992,0.034743 0.07281,0.074753 0.0989,0.1199229 0.02778,0.045164 0.04163,0.095292 0.04163,0.1508815 0,0.1129178 -0.0392,0.2015457 -0.117394,0.2658228 -0.06842,0.056236 -0.159301,0.087978 -0.272909,0.095012 -0.01628,0.00114 -0.033,0.00142 -0.05014,0.00142 -0.09726,0 -0.190017,-0.011986 -0.278594,-0.0363 l -0.01564,0.046622 c 0.100746,0.0278 0.198729,0.041993 0.294248,0.041993 0.0094,0 0.01899,-4.422e-4 0.02814,-6.664e-4 0.0092,-2.922e-4 0.0185,-4.514e-4 0.02735,-0.00114 0.125371,-0.00819 0.226696,-0.04495 0.304204,-0.1103136 0.03592,-0.03035 0.0647,-0.064964 0.08611,-0.1039107 0.0014,-0.003 0.0028,-0.00622 0.0043,-0.00931 0.02807,-0.05485 0.04199,-0.1179808 0.04199,-0.1893145 0,-0.00385 1.15e-4,-0.00752 0,-0.011392 -0.0022,-0.057914 -0.01735,-0.1107679 -0.04664,-0.1579987 -0.02949,-0.052107 -0.0662,-0.097003 -0.109574,-0.135222 -0.04342,-0.038207 -0.09988,-0.083466 -0.169363,-0.1355807 -0.07281,-0.052557 -0.132392,-0.1006015 -0.17897,-0.14412 -0.0036,-0.004 -0.0084,-0.0079 -0.01243,-0.011736 -0.0081,-0.0078 -0.01571,-0.0153 -0.02278,-0.022764 -0.0029,-0.00379 -0.0075,-0.00771 -0.01064,-0.011394 -0.0029,-0.00365 -0.0057,-0.00707 -0.0096,-0.010679 -0.05042,-0.057329 -0.07542,-0.1261257 -0.07542,-0.2060372 0,-0.00622 6.4e-5,-0.012122 3.43e-4,-0.01815 0.0022,-0.045292 0.01207,-0.086576 0.03022,-0.1234806 0.0014,-0.0025 0.0028,-0.00457 0.0036,-0.00714 0.018,-0.033914 0.04278,-0.064143 0.07469,-0.090741 0.0043,-0.00371 0.0093,-0.00743 0.01421,-0.011035 0.07266,-0.053436 0.165163,-0.08042 0.277523,-0.08042 0.05935,0 0.117373,0.00414 0.173984,0.012107 0.0081,0.00121 0.01621,0.00235 0.02414,0.00357 l 0.01038,-0.049459 c -0.06427,-0.012172 -0.133812,-0.01815 -0.208492,-0.01815 z m 1.35487,0.025972 -0.63829,1.5533001 0.05728,0.0025 0.05728,-0.1459014 h 1.09693 l 0.05478,0.1434086 h 0.05728 l -0.62792,-1.5532621 z m 7.17788,0 -0.638296,1.5533001 0.05728,0.0025 0.05728,-0.1459014 h 1.096931 l 0.05485,0.1434086 h 0.05728 l -0.627991,-1.5533 z m -5.893434,0.023486 v 1.5479601 h 0.05235 V 1.9013289 l 1.172352,1.4593537 h 0.04692 V 1.8127233 h -0.05235 V 3.2720747 L 13.987023,1.812721 Z m 3.655462,0.0055 v 1.5426216 h 0.05192 v -0.614938 h 0.422335 l 0.382839,0.6149143 h 0.06256 l -0.39103,-0.6227443 c 0.123328,-0.02085 0.219796,-0.071335 0.289263,-0.1512357 0.0086,-0.0102 0.01693,-0.020836 0.0245,-0.031664 0.0028,-0.0055 0.0075,-0.0108 0.011,-0.016364 0.04585,-0.07242 0.06871,-0.1581236 0.06871,-0.2569251 0,-0.00442 9.2e-5,-0.00884 0,-0.013171 -0.0022,-0.086831 -0.02164,-0.1622465 -0.05949,-0.2266794 -0.0022,-0.00328 -0.0028,-0.00643 -0.005,-0.00961 -0.01978,-0.031656 -0.04414,-0.060414 -0.07296,-0.086474 -0.09208,-0.085122 -0.214727,-0.1277539 -0.367572,-0.1277539 z m -1.758701,0.00493 v 1.5244421 h 0.440473 c 0.145904,0 0.275274,-0.03215 0.388175,-0.096436 0.114639,-0.066014 0.203258,-0.1580122 0.265783,-0.2761416 0.06427,-0.1181285 0.09643,-0.2527607 0.09643,-0.4038942 0,-0.151135 -0.02957,-0.2823907 -0.08861,-0.393573 C 16.880047,2.0646352 16.79481,1.9778664 16.683651,1.9170651 16.57422,1.854523 16.4456,1.823119 16.297954,1.823119 Z m -3.152376,0.036657 0.526222,1.2871208 h -1.057787 z m 7.177887,0 0.526208,1.2871208 h -1.05778 z m -2.214855,0.010322 h 0.364693 c 0.138961,0 0.249257,0.0374 0.3309,0.1120943 0.08164,0.07296 0.122749,0.1728144 0.122749,0.2996279 0,0.1268149 -0.04106,0.2277764 -0.122749,0.3024758 -0.08164,0.07296 -0.192703,0.110355 -0.333384,0.1120935 l -0.362209,-0.00293 z m -1.758364,0.0055 h 0.408815 c 0.13896,0 0.258975,0.028793 0.359714,0.086117 0.102483,0.0556 0.180626,0.1363672 0.234473,0.2423358 0.05556,0.1042321 0.08325,0.2265286 0.08325,0.3672414 0,0.1424465 -0.02949,0.2684749 -0.08858,0.3779158 -0.05906,0.1094435 -0.141683,0.1954535 -0.247629,0.2579934 -0.104224,0.060793 -0.224632,0.091099 -0.361858,0.091099 l -0.388182,-0.0025 z m 3.755101,3.258903 -0.638304,1.5532988 0.05728,0.0025 0.05728,-0.1458978 h 1.09693 l 0.05478,0.1434092 h 0.05728 L 19.701514,5.1344625 Z m -8.889626,0.023493 v 1.5479502 h 0.05192 V 6.1689913 h 0.388539 c 0.0043,0 0.0098,9.08e-5 0.01464,0 0.0043,-9.14e-5 0.0098,-1.771e-4 0.01464,-3.564e-4 0.08665,-0.00328 0.163186,-0.021014 0.229497,-0.053371 0.0028,-0.00178 0.0064,-0.00385 0.01064,-0.00571 0.03985,-0.020779 0.07592,-0.046993 0.108174,-0.078644 0.0687,-0.066178 0.112681,-0.1479514 0.131991,-0.2455371 6.73e-4,-0.00421 0.0022,-0.00846 0.0028,-0.0128 0.0057,-0.034421 0.0089,-0.070672 0.0089,-0.108893 0,-0.1007584 -0.02093,-0.1893834 -0.06256,-0.2658213 -0.04178,-0.076443 -0.101545,-0.1355343 -0.179711,-0.1772257 -0.07643,-0.041693 -0.165042,-0.062635 -0.265789,-0.062635 z m 1.521392,0 V 6.70598 h 0.732236 v -0.0523 l -0.679931,0.00286 V 5.9530502 h 0.64863 V 5.9007283 H 12.32832 V 5.2103468 h 0.679931 v -0.052307 z m 2.558546,0 v 1.5479508 h 0.732235 v -0.052321 l -0.679924,0.00286 V 5.9530385 h 0.648616 V 5.9007313 H 14.886872 V 5.2103506 h 0.679924 v -0.052307 z m 2.858137,0 v 1.5479502 h 0.732236 v -0.052321 l -0.679939,0.00286 V 5.9529935 h 0.64863 v -0.052314 h -0.64863 v -0.690381 h 0.679939 v -0.052307 z m 3.157712,0 v 1.0373108 c 0,0.1059679 0.02278,0.1987222 0.06799,0.2786343 0.04692,0.079912 0.11348,0.1416123 0.200329,0.1850421 0.08686,0.043421 0.187782,0.065122 0.302425,0.065122 0.112895,0 0.211985,-0.0217 0.297092,-0.065122 0.08686,-0.043421 0.152666,-0.1051314 0.197829,-0.1850421 0.04684,-0.079914 0.07049,-0.1726664 0.07049,-0.2786343 V 5.1580132 h -0.05235 v 1.0372665 c 0,0.1476601 -0.04599,0.2639707 -0.138054,0.3490928 -0.04321,0.0399 -0.09355,0.07025 -0.151217,0.091456 -0.05764,0.021193 -0.122456,0.0331 -0.194616,0.035586 -0.0097,3.315e-4 -0.01928,6.672e-4 -0.02921,6.672e-4 -0.159808,0 -0.286543,-0.042636 -0.380348,-0.1277515 C 20.9487,6.4592152 20.902714,6.3429092 20.902714,6.1952485 V 5.1579462 Z m -4.700107,0.0055 v 1.5426193 h 0.05235 V 6.091242 h 0.421969 l 0.382847,0.6149158 h 0.06256 L 16.679378,6.0833549 c 0.123306,-0.02085 0.219783,-0.071335 0.28925,-0.1512357 0.0086,-0.0102 0.01664,-0.020842 0.0242,-0.031664 0.0036,-0.0055 0.0075,-0.0108 0.011,-0.016364 0.04585,-0.072435 0.0687,-0.1581237 0.0687,-0.2569244 0,-0.00442 9.3e-5,-0.00884 0,-0.013171 -0.0029,-0.134577 -0.04892,-0.241977 -0.138048,-0.3227577 -0.09205,-0.08512 -0.214327,-0.1277536 -0.367186,-0.1277536 z m -2.670257,0.0055 v 0.051965 h 0.411294 v 1.4853307 h 0.05235 V 5.220632 h 0.409172 V 5.168675 Z m 6.192661,0.0363 0.526588,1.2871214 h -1.057788 z m -8.866135,0.0055 h 0.401337 c 0.138961,0 0.249264,0.041514 0.330892,0.1249043 0.08338,0.081652 0.12525,0.1912136 0.12525,0.328453 0,0.1389735 -0.04256,0.2492956 -0.127728,0.3309427 -0.07816,0.076548 -0.182947,0.1172736 -0.314539,0.1220579 -0.0036,1.572e-4 -0.0091,2.751e-4 -0.01357,3.55e-4 -0.0043,8.07e-5 -0.0086,0 -0.01314,0 h -0.38853 z m 5.396036,0.00493 H 16.5673 c 0.138956,0 0.249264,0.037386 0.3309,0.1120943 0.08162,0.072967 0.122392,0.1728128 0.122392,0.2996264 0,0.1268158 -0.04078,0.2277765 -0.122392,0.3024757 -0.08162,0.072967 -0.192694,0.1103572 -0.333392,0.1120935 l -0.3622,-0.00293 z" /><path
     id="path744"
     style="font-weight:900;font-size:3.78409px;font-family:'dT Jakob Variable Concept';-inkscape-font-specification:'dT Jakob Variable Concept Heavy';letter-spacing:-0.321647px;fill:#ffffff;fill-rule:evenodd;stroke:#ffffff;stroke-width:0.0264583;stroke-linecap:round;stroke-miterlimit:0;stroke-dasharray:none;stroke-opacity:1;paint-order:fill markers stroke"
     d="m 11.300779,1.7632596 c -0.0886,0 -0.167492,0.016457 -0.236966,0.049464 -0.06778,0.031265 -0.120822,0.076512 -0.159044,0.1355807 -0.03814,0.057328 -0.05728,0.1231536 -0.05728,0.1978537 0,0.062543 0.01492,0.1201171 0.04449,0.1722335 0.03121,0.052114 0.0687,0.098114 0.112081,0.13807 0.04514,0.038207 0.102367,0.083466 0.171833,0.13558 l 0.0029,0.0025 c 0.06942,0.050378 0.124428,0.093005 0.164386,0.1277514 0.03992,0.034743 0.07281,0.074753 0.0989,0.1199229 0.02778,0.045164 0.04163,0.095292 0.04163,0.1508815 0,0.1129178 -0.0392,0.2015457 -0.117394,0.2658228 -0.06842,0.056236 -0.159301,0.087978 -0.272909,0.095012 -0.01628,0.00114 -0.033,0.00142 -0.05014,0.00142 -0.09726,0 -0.190017,-0.011986 -0.278594,-0.0363 l -0.01564,0.046622 c 0.100746,0.0278 0.198729,0.041993 0.294248,0.041993 0.0094,0 0.01899,-4.422e-4 0.02814,-6.664e-4 0.0092,-2.922e-4 0.0185,-4.514e-4 0.02735,-0.00114 0.125371,-0.00819 0.226696,-0.04495 0.304204,-0.1103136 0.03592,-0.03035 0.0647,-0.064964 0.08611,-0.1039107 0.0014,-0.003 0.0028,-0.00622 0.0043,-0.00931 0.02807,-0.05485 0.04199,-0.1179808 0.04199,-0.1893145 0,-0.00385 1.15e-4,-0.00752 0,-0.011392 -0.0022,-0.057914 -0.01735,-0.1107679 -0.04664,-0.1579987 -0.02949,-0.052107 -0.0662,-0.097003 -0.109574,-0.135222 -0.04342,-0.038207 -0.09988,-0.083466 -0.169363,-0.1355807 -0.07281,-0.052557 -0.132392,-0.1006015 -0.17897,-0.14412 -0.0036,-0.004 -0.0084,-0.0079 -0.01243,-0.011736 -0.0081,-0.0078 -0.01571,-0.0153 -0.02278,-0.022764 -0.0029,-0.00379 -0.0075,-0.00771 -0.01064,-0.011394 -0.0029,-0.00365 -0.0057,-0.00707 -0.0096,-0.010679 -0.05042,-0.057329 -0.07542,-0.1261257 -0.07542,-0.2060372 0,-0.00622 6.4e-5,-0.012122 3.43e-4,-0.01815 0.0022,-0.045292 0.01207,-0.086576 0.03022,-0.1234806 0.0014,-0.0025 0.0028,-0.00457 0.0036,-0.00714 0.018,-0.033914 0.04278,-0.064143 0.07469,-0.090741 0.0043,-0.00371 0.0093,-0.00743 0.01421,-0.011035 0.07266,-0.053436 0.165163,-0.08042 0.277523,-0.08042 0.05935,0 0.117373,0.00414 0.173984,0.012107 0.0081,0.00121 0.01621,0.00235 0.02414,0.00357 l 0.01038,-0.049459 c -0.06427,-0.012172 -0.133812,-0.01815 -0.208492,-0.01815 z m 1.35487,0.025972 -0.63829,1.5533001 0.05728,0.0025 0.05728,-0.1459014 h 1.09693 l 0.05478,0.1434086 h 0.05728 l -0.62792,-1.5532621 z m 7.17788,0 -0.638296,1.5533001 0.05728,0.0025 0.05728,-0.1459014 h 1.096931 l 0.05485,0.1434086 h 0.05728 l -0.627991,-1.5533 z m -5.893434,0.023486 v 1.5479601 h 0.05235 V 1.9013289 l 1.172352,1.4593537 h 0.04692 V 1.8127233 h -0.05235 V 3.2720747 L 13.987023,1.812721 Z m 3.655462,0.0055 v 1.5426216 h 0.05192 v -0.614938 h 0.422335 l 0.382839,0.6149143 h 0.06256 l -0.39103,-0.6227443 c 0.123328,-0.02085 0.219796,-0.071335 0.289263,-0.1512357 0.0086,-0.0102 0.01693,-0.020836 0.0245,-0.031664 0.0028,-0.0055 0.0075,-0.0108 0.011,-0.016364 0.04585,-0.07242 0.06871,-0.1581236 0.06871,-0.2569251 0,-0.00442 9.2e-5,-0.00884 0,-0.013171 -0.0022,-0.086831 -0.02164,-0.1622465 -0.05949,-0.2266794 -0.0022,-0.00328 -0.0028,-0.00643 -0.005,-0.00961 -0.01978,-0.031656 -0.04414,-0.060414 -0.07296,-0.086474 -0.09208,-0.085122 -0.214727,-0.1277539 -0.367572,-0.1277539 z m -1.758701,0.00493 v 1.5244421 h 0.440473 c 0.145904,0 0.275274,-0.03215 0.388175,-0.096436 0.114639,-0.066014 0.203258,-0.1580122 0.265783,-0.2761416 0.06427,-0.1181285 0.09643,-0.2527607 0.09643,-0.4038942 0,-0.151135 -0.02957,-0.2823907 -0.08861,-0.393573 C 16.880047,2.0646352 16.79481,1.9778664 16.683651,1.9170651 16.57422,1.854523 16.4456,1.823119 16.297954,1.823119 Z m -3.152376,0.036657 0.526222,1.2871208 h -1.057787 z m 7.177887,0 0.526208,1.2871208 h -1.05778 z m -2.214855,0.010322 h 0.364693 c 0.138961,0 0.249257,0.0374 0.3309,0.1120943 0.08164,0.07296 0.122749,0.1728144 0.122749,0.2996279 0,0.1268149 -0.04106,0.2277764 -0.122749,0.3024758 -0.08164,0.07296 -0.192703,0.110355 -0.333384,0.1120935 l -0.362209,-0.00293 z m -1.758364,0.0055 h 0.408815 c 0.13896,0 0.258975,0.028793 0.359714,0.086117 0.102483,0.0556 0.180626,0.1363672 0.234473,0.2423358 0.05556,0.1042321 0.08325,0.2265286 0.08325,0.3672414 0,0.1424465 -0.02949,0.2684749 -0.08858,0.3779158 -0.05906,0.1094435 -0.141683,0.1954535 -0.247629,0.2579934 -0.104224,0.060793 -0.224632,0.091099 -0.361858,0.091099 l -0.388182,-0.0025 z m 3.755101,3.258903 -0.638304,1.5532988 0.05728,0.0025 0.05728,-0.1458978 h 1.09693 l 0.05478,0.1434092 h 0.05728 L 19.701514,5.1344625 Z m -8.889626,0.023493 v 1.5479502 h 0.05192 V 6.1689913 h 0.388539 c 0.0043,0 0.0098,9.08e-5 0.01464,0 0.0043,-9.14e-5 0.0098,-1.771e-4 0.01464,-3.564e-4 0.08665,-0.00328 0.163186,-0.021014 0.229497,-0.053371 0.0028,-0.00178 0.0064,-0.00385 0.01064,-0.00571 0.03985,-0.020779 0.07592,-0.046993 0.108174,-0.078644 0.0687,-0.066178 0.112681,-0.1479514 0.131991,-0.2455371 6.73e-4,-0.00421 0.0022,-0.00846 0.0028,-0.0128 0.0057,-0.034421 0.0089,-0.070672 0.0089,-0.108893 0,-0.1007584 -0.02093,-0.1893834 -0.06256,-0.2658213 -0.04178,-0.076443 -0.101545,-0.1355343 -0.179711,-0.1772257 -0.07643,-0.041693 -0.165042,-0.062635 -0.265789,-0.062635 z m 1.521392,0 V 6.70598 h 0.732236 v -0.0523 l -0.679931,0.00286 V 5.9530502 h 0.64863 V 5.9007283 H 12.32832 V 5.2103468 h 0.679931 v -0.052307 z m 2.558546,0 v 1.5479508 h 0.732235 v -0.052321 l -0.679924,0.00286 V 5.9530385 h 0.648616 V 5.9007313 H 14.886872 V 5.2103506 h 0.679924 v -0.052307 z m 2.858137,0 v 1.5479502 h 0.732236 v -0.052321 l -0.679939,0.00286 V 5.9529935 h 0.64863 v -0.052314 h -0.64863 v -0.690381 h 0.679939 v -0.052307 z m 3.157712,0 v 1.0373108 c 0,0.1059679 0.02278,0.1987222 0.06799,0.2786343 0.04692,0.079912 0.11348,0.1416123 0.200329,0.1850421 0.08686,0.043421 0.187782,0.065122 0.302425,0.065122 0.112895,0 0.211985,-0.0217 0.297092,-0.065122 0.08686,-0.043421 0.152666,-0.1051314 0.197829,-0.1850421 0.04684,-0.079914 0.07049,-0.1726664 0.07049,-0.2786343 V 5.1580132 h -0.05235 v 1.0372665 c 0,0.1476601 -0.04599,0.2639707 -0.138054,0.3490928 -0.04321,0.0399 -0.09355,0.07025 -0.151217,0.091456 -0.05764,0.021193 -0.122456,0.0331 -0.194616,0.035586 -0.0097,3.315e-4 -0.01928,6.672e-4 -0.02921,6.672e-4 -0.159808,0 -0.286543,-0.042636 -0.380348,-0.1277515 C 20.9487,6.4592152 20.902714,6.3429092 20.902714,6.1952485 V 5.1579462 Z m -4.700107,0.0055 v 1.5426193 h 0.05235 V 6.091242 h 0.421969 l 0.382847,0.6149158 h 0.06256 L 16.679378,6.0833549 c 0.123306,-0.02085 0.219783,-0.071335 0.28925,-0.1512357 0.0086,-0.0102 0.01664,-0.020842 0.0242,-0.031664 0.0036,-0.0055 0.0075,-0.0108 0.011,-0.016364 0.04585,-0.072435 0.0687,-0.1581237 0.0687,-0.2569244 0,-0.00442 9.3e-5,-0.00884 0,-0.013171 -0.0029,-0.134577 -0.04892,-0.241977 -0.138048,-0.3227577 -0.09205,-0.08512 -0.214327,-0.1277536 -0.367186,-0.1277536 z m -2.670257,0.0055 v 0.051965 h 0.411294 v 1.4853307 h 0.05235 V 5.220632 h 0.409172 V 5.168675 Z m 6.192661,0.0363 0.526588,1.2871214 h -1.057788 z m -8.866135,0.0055 h 0.401337 c 0.138961,0 0.249264,0.041514 0.330892,0.1249043 0.08338,0.081652 0.12525,0.1912136 0.12525,0.328453 0,0.1389735 -0.04256,0.2492956 -0.127728,0.3309427 -0.07816,0.076548 -0.182947,0.1172736 -0.314539,0.1220579 -0.0036,1.572e-4 -0.0091,2.751e-4 -0.01357,3.55e-4 -0.0043,8.07e-5 -0.0086,0 -0.01314,0 h -0.38853 z m 5.396036,0.00493 H 16.5673 c 0.138956,0 0.249264,0.037386 0.3309,0.1120943 0.08162,0.072967 0.122392,0.1728128 0.122392,0.2996264 0,0.1268158 -0.04078,0.2277765 -0.122392,0.3024757 -0.08162,0.072967 -0.192694,0.1103572 -0.333392,0.1120935 l -0.3622,-0.00293 z" /><ellipse
     style="fill:#ffffff;fill-opacity:1;fill-rule:evenodd;stroke:none;stroke-width:0.2;stroke-linecap:round;stroke-miterlimit:0;stroke-dasharray:none;stroke-opacity:1;paint-order:fill markers stroke"
     id="circle6793"
     cx="4.0081973"
     cy="4.2498679"
     rx="3.6388867"
     ry="3.6394434" /><path
     id="path6795"
     style="fill:#042b38;fill-opacity:1;fill-rule:evenodd;stroke:none;stroke-width:0.2;stroke-linecap:round;stroke-miterlimit:0;stroke-dasharray:none;stroke-opacity:1;paint-order:fill markers stroke"
     d="m 4.016651,1.0403697 c 0,0 -1.0011179,1.7427928 -1.0037959,1.7476836 l 3.6434133,2.8470065 z m -1.7812814,1.3595572 0.00357,1.718275 4.5902048,1.779768 z m 4.130628,0.7232264 -0.7077405,0.5079958 c 0,0 1.2048179,2.1306223 1.2069675,2.1340287 z M 1.1431247,3.8927226 1.142689,6.0445756 6.9109167,6.0441441 Z" /></svg>
