<?xml version="1.0" encoding="UTF-8" standalone="no"?>
<!-- Created with Inkscape (http://www.inkscape.org/) -->

<svg
   width="97"
   height="42.927757"
   viewBox="0 0 25.664585 11.357968"
   version="1.1"
   id="svg5"
   xml:space="preserve"
   inkscape:version="1.2.1 (9c6d41e410, 2022-07-14)"
   sodipodi:docname="charte-graphique.svg"
   inkscape:export-filename="..\..\..\..\dev\cours\openclassrooms\projets\developpeur_web\session_8-portfolio\logo1.png"
   inkscape:export-xdpi="96"
   inkscape:export-ydpi="96"
   xmlns:inkscape="http://www.inkscape.org/namespaces/inkscape"
   xmlns:sodipodi="http://sodipodi.sourceforge.net/DTD/sodipodi-0.dtd"
   xmlns="http://www.w3.org/2000/svg"
   xmlns:svg="http://www.w3.org/2000/svg"><sodipodi:namedview
     id="namedview7"
     pagecolor="#ffffff"
     bordercolor="#000000"
     borderopacity="0.25"
     inkscape:showpageshadow="2"
     inkscape:pageopacity="0.0"
     inkscape:pagecheckerboard="0"
     inkscape:deskcolor="#d1d1d1"
     inkscape:document-units="mm"
     showgrid="false"
     inkscape:zoom="8"
     inkscape:cx="54.9375"
     inkscape:cy="31.1875"
     inkscape:window-width="1920"
     inkscape:window-height="1051"
     inkscape:window-x="-9"
     inkscape:window-y="-9"
     inkscape:window-maximized="1"
     inkscape:current-layer="svg5" /><defs
     id="defs2"><rect
       x="1243.0938"
       y="28.991379"
       width="108.89444"
       height="145.664"
       id="rect1127" /><inkscape:path-effect
       effect="fill_between_many"
       method="originald"
       linkedpaths="#path1878,0,1|#path1932,0,1"
       id="path-effect1940"
       is_visible="true"
       lpeversion="0"
       join="true"
       close="true"
       autoreverse="true" /></defs><path
     id="path1986"
     style="color:#000000;-inkscape-font-specification:'dT Jakob Variable Concept Heavy';fill:#ffffff;fill-rule:evenodd;stroke:#ffffff;stroke-width:0.015;stroke-linecap:square;stroke-linejoin:bevel;stroke-miterlimit:0;stroke-dasharray:none;stroke-opacity:1;paint-order:stroke fill markers"
     d="m 3.3092646,0.14006491 c -0.1993722,0 -0.37731,0.0359717 -0.5342745,0.11055639 C 2.6218607,0.3213307 2.5006118,0.42696288 2.4140355,0.56081713 2.3361075,0.67776185 2.2944927,0.81027732 2.2868311,0.95850458 c -8.619e-4,0.016649 -0.00157,0.0330434 -0.00157,0.0501136 0,0.00108 -4.9e-6,0.00216 0,0.00323 -2.64e-5,0.00294 0,0.00588 0,0.00881 0,0.1415853 0.034797,0.2723086 0.1017732,0.3905284 0.070407,0.1173903 0.1549705,0.2193421 0.2528262,0.3094026 v 0.00323 c 0.1011738,0.085635 0.2286505,0.1840805 0.3840108,0.3006501 l 0.00323,0.00627 h 0.00323 c 0.1550704,0.1124808 0.2776523,0.2082342 0.3665183,0.2855386 0.088339,0.07685 0.1618614,0.165032 0.2194346,0.2648605 0.060202,0.097857 0.089867,0.2080531 0.090631,0.3284892 -0.00166,0.246149 -0.08877,0.4356717 -0.2591872,0.5758526 -0.1720988,0.1415549 -0.4099377,0.2139557 -0.7147519,0.2139557 -0.2164015,0 -0.422452,-0.02706 -0.6193455,-0.08113 l -0.015073,0.00881 -0.032603,0.1049849 0.00235,0.00558 -0.00235,0.00627 0.00558,0.015082 c 0.226015,0.062385 0.446905,0.093058 0.6614839,0.093058 0.3395719,0 0.6105361,-0.086252 0.8109543,-0.2553158 0.2004202,-0.1690473 0.3005304,-0.3963065 0.3005304,-0.6824318 0,-0.00166 7.8e-6,-0.00304 0,-0.0048 1.37e-5,-0.00245 0,-0.0048 0,-0.00725 0,-0.1417254 -0.033974,-0.2705467 -0.1049424,-0.3849618 C 3.6729829,2.3998166 3.5911027,2.2974036 3.4931031,2.2111264 3.3957341,2.1254133 3.2700751,2.0239022 3.114658,1.9072934 2.8783106,1.7367437 2.7031024,1.5897093 2.591513,1.4626792 2.4822163,1.3382385 2.4276174,1.1887685 2.4261425,1.0156773 2.4273177,0.79950932 2.5075869,0.62763261 2.6670439,0.49470777 2.8315898,0.36070955 3.0443814,0.29268261 3.310241,0.29268261 c 0.150775,0 0.2982808,0.0101559 0.4412541,0.033396 l 0.011997,-0.008814 0.023848,-0.11135652 -0.00157,-0.002448 0.00157,-0.0095 -0.00881,-0.0120069 C 3.6341049,0.1546191 3.4769533,0.13979167 3.3094448,0.13979167 Z m 3.0291503,0.0596623 -0.011997,0.006268 -1.4271199,3.47181352 0.00323,0.00402 -0.00323,0.00803 0.011997,0.015082 0.12642,0.00627 0.011997,-0.00627 0.1256208,-0.3189454 h 2.4344505 l 0.1200511,0.3125816 0.011997,0.00627 h 0.12642 l 0.011997,-0.015082 -0.00323,-0.00803 0.00323,-0.00402 -1.4032673,-3.47181349 -0.011997,-0.006268 z m 16.0378051,0 -0.0095,0.006268 -1.42712,3.47181352 0.0032,0.00402 -0.0032,0.00803 0.012,0.015082 0.126405,0.00627 0.012,-0.00627 0.125621,-0.3189454 h 2.434452 l 0.120051,0.3125816 0.0095,0.00627 h 0.128805 l 0.012,-0.015082 -0.0032,-0.00803 0.0032,-0.00402 -1.403268,-3.47181349 -0.012,-0.006268 z m -13.1676634,0.0508971 -0.011997,0.0127708 v 0.0120069 3.44795058 0.012007 l 0.011997,0.012007 h 0.113697 l 0.011997,-0.012007 V 3.7233525 0.5068547 l 2.6022077,3.2339959 0.0095,0.00627 h 0.101773 l 0.012,-0.012007 V 3.7231047 0.27515413 0.26314724 l -0.012,-0.0127708 h -0.113697 l -0.012,0.0127708 v 0.0120069 3.21649676 l -2.5998211,-3.23479111 -0.00881,-0.006268 z m 9.0985834,0.0120069 -0.931801,7.9426e-4 -0.012,0.0127708 v 0.0110863 3.43681721 0.011086 l 0.012,0.012771 h 0.117665 l 0.012,-0.012771 V 3.7240997 2.3735523 h 0.922261 l 0.853887,1.3672494 0.012,0.00627 h 0.138344 l 0.0087,-0.018304 -0.0032,-0.0048 0.0032,-0.00725 L 18.580742,2.344697 C 18.845963,2.2952 19.05986,2.1872755 19.212014,2.0122287 19.369097,1.8275812 19.44894,1.5982301 19.44894,1.3242292 c 0,-0.00186 8e-6,-0.00372 0,-0.00558 9e-6,-0.00215 0,-0.00411 0,-0.00627 0,-0.31702194 -0.104357,-0.57263541 -0.312455,-0.76117289 -0.208036,-0.19242315 -0.485533,-0.28871915 -0.82923,-0.28871915 z m -4.861747,0.0135445 -0.012,0.0120069 v 0.0110863 3.39466197 0.011086 l 0.012,0.012771 h 0.98507 c 0.32771,0 0.618047,-0.07162 0.872172,-0.2163423 0.257953,-0.148573 0.457215,-0.3561579 0.597881,-0.6219831 0.128128,-0.2355769 0.197802,-0.5011504 0.212278,-0.7945797 0.0022,-0.039468 0.0038,-0.079602 0.004,-0.1200992 -9.9e-5,-0.040202 -0.0013,-0.080297 -0.0032,-0.1192991 C 16.100346,1.5530825 16.035943,1.2944614 15.917995,1.072379 15.785051,0.81812195 15.594252,0.62311681 15.343967,0.48618738 15.097492,0.34529353 14.807279,0.27620889 14.475768,0.27620889 Z M 6.398839,0.41059003 7.5564363,3.2341708 H 5.2348817 Z m 16.040191,0 1.15839,2.82358077 h -2.322348 z m -4.934099,0.002448 h 0.802209 c 0.308431,0 0.549843,0.0849786 0.729858,0.24974812 0.178714,0.15976601 0.269878,0.37795545 0.271113,0.65618515 -0.0013,0.2782708 -0.09232,0.4981114 -0.271113,0.6617508 -0.180002,0.1609187 -0.42381,0.2427075 -0.736219,0.2465662 l -0.795848,-0.00627 z m -3.930741,0.0127708 h 0.901591 c 0.308893,0 0.575885,0.0654796 0.799027,0.19248135 0.227049,0.123193 0.400625,0.30354504 0.519965,0.53846962 0.107789,0.2021809 0.167219,0.4345376 0.180478,0.6991338 0.0016,0.034013 0.0032,0.06832 0.0032,0.1033992 1.9e-5,0.00402 0,0.00783 0,0.012007 -1.86e-4,0.035462 -0.0014,0.070474 -0.0032,0.1049848 -0.01415,0.2690532 -0.07779,0.5097815 -0.192403,0.7222005 -0.131021,0.2428838 -0.314354,0.4323272 -0.549382,0.5710802 -0.230966,0.1347983 -0.498094,0.2044109 -0.803003,0.2044109 l -0.856273,-0.00627 z m 6.637897,7.23314287 -0.0087,0.0095 -1.427121,3.4718133 0.0032,0.004 -0.0032,0.008 0.012,0.01508 0.12562,0.0056 0.012,-0.0095 0.126421,-0.318945 h 2.434451 l 0.120051,0.312581 0.0087,0.0095 h 0.129589 l 0.012,-0.01432 -0.0032,-0.008 0.0032,-0.004 -1.403268,-3.4718129 -0.012,-0.0095 z m -14.8261434,0.053287 -1.6378097,7.962e-4 -0.00881,0.0095 v 0.012007 3.4479511 0.01201 l 0.00881,0.01201 h 1.6378097 l 0.011997,-0.01201 v -0.01201 -0.1026 -0.01201 l -0.011997,-0.01201 -1.5082156,0.0063 V 9.521506 h 1.4390447 l 0.011997,-0.00881 V 9.5016153 9.3958294 9.3847529 L 5.3167727,9.3719821 H 3.877728 V 7.862361 H 5.3859436 L 5.3979406,7.850354 V 7.8383473 7.7333615 7.7213546 Z m 5.7156324,0 -1.6346274,7.962e-4 -0.011997,0.0095 v 0.012007 3.4479511 0.01201 l 0.011997,0.01201 h 1.6346274 l 0.012,-0.01201 v -0.01201 -0.1026 -0.01201 l -0.012,-0.01201 -1.5058286,0.0063 V 9.521506 h 1.4366596 l 0.012,-0.00881 V 9.5016153 9.3958294 9.3847529 l -0.012,-0.012771 H 9.5957474 V 7.862361 h 1.5058286 l 0.012,-0.012007 V 7.8383473 7.7333615 7.7213546 Z m 6.38825,0 -1.637809,7.962e-4 -0.0088,0.0095 v 0.012007 3.4479511 0.01201 l 0.0088,0.01201 h 1.637809 l 0.012,-0.01201 v -0.01201 -0.1026 -0.01201 l -0.012,-0.01201 -1.508215,0.0063 V 9.521506 h 1.439044 l 0.012,-0.00881 V 9.5016153 9.3958294 9.3847529 l -0.012,-0.012771 H 15.981611 V 7.862361 h 1.508215 l 0.012,-0.012007 V 7.8383473 7.7333615 7.7213546 Z m 5.535157,0 -0.114482,7.962e-4 -0.012,0.0095 v 0.012007 2.3081791 0.01201 c 1.9e-4,0.02564 9.79e-4,0.05059 0.0024,0.07556 0.0098,0.207123 0.06009,0.39176 0.151068,0.552785 0.105896,0.180508 0.254944,0.320402 0.450794,0.418367 0.195879,0.09798 0.42454,0.147142 0.682156,0.147142 0.253759,0 0.475023,-0.04912 0.667049,-0.147142 0.195877,-0.09798 0.34558,-0.237767 0.447615,-0.418367 0.105928,-0.18054 0.159012,-0.38981 0.159012,-0.628346 v -0.01201 -2.3081783 -0.012007 l -0.01277,-0.0095 h -0.113697 l -0.012,0.0095 v 0.012007 2.3081792 c 0,0.32764 -0.10362,0.581927 -0.306893,0.769922 -0.203247,0.188019 -0.478119,0.282359 -0.829239,0.282359 -0.355019,0 -0.633989,-0.0943 -0.841165,-0.282359 C 23.1398,10.624371 23.036735,10.369564 23.036735,10.041921 V 7.7337424 7.7217355 Z m -22.67490346,7.962e-4 -0.0118504,0.0095 v 0.012007 3.4479513 0.01201 l 0.0118504,0.01201 h 0.11688092 l 0.0119973,-0.01201 v -0.01201 -1.175565 H 1.3328447 c 0.3554436,0 0.6411973,-0.1045236 0.8530907,-0.3125826 0.2157552,-0.2079963 0.324381,-0.4855003 0.324381,-0.8295759 0,-0.00245 1.08e-5,-0.0048 0,-0.00725 -7.8e-6,-0.00157 1.27e-5,-0.00323 0,-0.0048 0,-0.024337 -0.00127,-0.048684 -0.00235,-0.072374 C 2.4988578,8.5832639 2.4529057,8.4087811 2.3688376,8.2546043 2.2746614,8.0818814 2.1398483,7.9487 1.96336,7.8545311 1.7907196,7.7603172 1.5890106,7.7129605 1.3623012,7.7129605 Z m 12.05538446,0.012007 -0.0088,0.0095 v 0.012007 3.4360211 0.01201 l 0.0088,0.01201 h 0.117665 l 0.012,-0.01201 V 11.18257 9.8328177 h 0.925441 l 0.853092,1.3672503 0.0095,0.0063 h 0.137543 l 0.012,-0.0183 -0.004,-0.0063 0.004,-0.0056 -0.861837,-1.3720221 c 0.265295,-0.049497 0.48149,-0.1574038 0.633657,-0.3324664 0.157084,-0.1846485 0.23454,-0.4140005 0.23454,-0.6879994 0,-0.00186 8e-6,-0.00372 0,-0.00558 10e-6,-0.00215 0,-0.00411 0,-0.00627 0,-0.3170269 -0.104358,-0.5694535 -0.312455,-0.757992 C 13.958559,7.821426 13.681059,7.725128 13.337365,7.725128 Z m -4.0142218,0.012007 -1.9502648,7.953e-4 -0.011997,0.00881 v 0.012007 0.1049849 0.012007 l 0.011997,0.012007 H 7.3481332 V 11.1829 11.19491 l 0.011997,0.01201 h 0.1144962 l 0.011997,-0.01201 V 11.1829 7.8876601 h 0.9047701 l 0.00881,-0.012007 V 7.8636499 7.758665 7.7466581 Z M 0.47887841,7.8635196 H 1.3621817 c 0.3081959,0 0.5505302,0.092764 0.7306529,0.2767911 h 0.00323 C 2.2788992,8.3194101 2.3684537,8.5607554 2.3695643,8.8625111 2.3681932,9.1676407 2.2730181,9.407372 2.0865255,9.586303 1.9026038,9.7664709 1.6527793,9.8567312 1.3328163,9.8567312 H 0.47887939 Z m 19.79681159,0.0095 1.157598,2.8227854 h -2.32235 z m -7.740634,0.00323 h 0.80221 c 0.308427,0 0.553022,0.081002 0.733037,0.24577 0.178563,0.1596309 0.268932,0.377546 0.270318,0.6553899 -0.0012,0.2782493 -0.09152,0.4981006 -0.270318,0.6617518 -0.180004,0.1608854 -0.426988,0.2458914 -0.739398,0.2497481 l -0.795849,-0.00627 z" /></svg>
