<?xml version="1.0" encoding="UTF-8" standalone="no"?>
<!-- Created with Inkscape (http://www.inkscape.org/) -->

<svg
   width="199.9996"
   height="88.402908"
   viewBox="0 0 52.916565 23.389935"
   version="1.1"
   id="svg5"
   xml:space="preserve"
   inkscape:version="1.2.1 (9c6d41e410, 2022-07-14)"
   sodipodi:docname="charte-graphique.svg"
   inkscape:export-filename="..\..\..\..\dev\cours\openclassrooms\projets\developpeur_web\session_8-portfolio\logo1.png"
   inkscape:export-xdpi="96"
   inkscape:export-ydpi="96"
   xmlns:inkscape="http://www.inkscape.org/namespaces/inkscape"
   xmlns:sodipodi="http://sodipodi.sourceforge.net/DTD/sodipodi-0.dtd"
   xmlns="http://www.w3.org/2000/svg"
   xmlns:svg="http://www.w3.org/2000/svg"><sodipodi:namedview
     id="namedview7"
     pagecolor="#ffffff"
     bordercolor="#000000"
     borderopacity="0.25"
     inkscape:showpageshadow="2"
     inkscape:pageopacity="0.0"
     inkscape:pagecheckerboard="0"
     inkscape:deskcolor="#d1d1d1"
     inkscape:document-units="mm"
     showgrid="false"
     inkscape:zoom="2.1492758"
     inkscape:cx="49.086302"
     inkscape:cy="6.2811856"
     inkscape:window-width="1920"
     inkscape:window-height="1051"
     inkscape:window-x="-9"
     inkscape:window-y="-9"
     inkscape:window-maximized="1"
     inkscape:current-layer="svg5" /><defs
     id="defs2"><rect
       x="1243.0938"
       y="28.991379"
       width="108.89444"
       height="145.664"
       id="rect1127" /><inkscape:path-effect
       effect="fill_between_many"
       method="originald"
       linkedpaths="#path1878,0,1|#path1932,0,1"
       id="path-effect1940"
       is_visible="true"
       lpeversion="0"
       join="true"
       close="true"
       autoreverse="true" /></defs><path
     id="path2095"
     style="color:#000000;-inkscape-font-specification:'dT Jakob Variable Concept Heavy';fill:#36b4c5;fill-opacity:1;fill-rule:evenodd;stroke:#ffffff;stroke-width:0.015;stroke-linecap:square;stroke-linejoin:bevel;stroke-miterlimit:0;stroke-dasharray:none;stroke-opacity:1;paint-order:stroke fill markers"
     d="m 6.8464435,0.37714195 c -0.4093643,0 -0.7747182,0.0737967 -1.0970057,0.22681292 C 5.4350224,0.74901132 5.1860653,0.96572925 5.0083032,1.2403399 4.8483085,1.4802575 4.7628502,1.7521207 4.7471187,2.0562168 c -0.00176,0.034154 -0.00312,0.0678 -0.00312,0.1028201 0,0.00224 -9.8e-6,0.00439 0,0.00663 -5.36e-5,0.00604 0,0.012022 0,0.018008 0,0.2904697 0.071467,0.5586552 0.2089658,0.8011908 0.1445527,0.2408331 0.3181954,0.449991 0.5191204,0.6347537 v 0.00663 c 0.2077343,0.1756904 0.4694785,0.377651 0.7884744,0.6168014 l 0.00663,0.012996 h 0.00663 C 6.5922195,4.486808 6.8439124,4.6832501 7.0263788,4.8418462 7.2077669,4.9995131 7.3587234,5.1804169 7.4769357,5.3852224 7.6005397,5.5859847 7.6614515,5.8120527 7.663031,6.0591346 7.6596185,6.5641237 7.4807567,6.9529393 7.1308515,7.240528 6.777487,7.5309373 6.2891442,7.6794696 5.6632775,7.6794696 c -0.4443276,0 -0.8674042,-0.055516 -1.27168,-0.1664409 l -0.030956,0.017989 -0.066943,0.2153832 0.00468,0.011378 -0.00468,0.012996 0.011378,0.030936 c 0.4640692,0.1279756 0.9176135,0.190911 1.358202,0.190911 0.6972285,0 1.2535908,-0.1769551 1.6651021,-0.5237927 0.411516,-0.3468103 0.6170674,-0.8130447 0.6170674,-1.4000466 0,-0.00341 1.66e-5,-0.00634 0,-0.0098 2.83e-5,-0.00507 0,-0.00965 0,-0.014791 0,-0.2907544 -0.069761,-0.5550409 -0.2154739,-0.7897698 C 7.5932535,5.0134008 7.4251313,4.8032952 7.2239128,4.6262924 7.0239794,4.4504439 6.7659772,4.2421908 6.4468643,4.0029624 5.9615811,3.6530712 5.6018323,3.3514193 5.3727115,3.0908114 5.1482959,2.8355162 5.03619,2.5288676 5.0331597,2.1737621 5.0355972,1.730282 5.2003977,1.3776666 5.5277951,1.104965 5.8656533,0.83005995 6.3025689,0.69049852 6.8484471,0.69049852 c 0.3095824,0 0.6124518,0.0208452 0.9060121,0.0685123 l 0.024638,-0.018008 0.048974,-0.2284548 -0.00312,-0.00507 0.00312,-0.0195777 -0.018008,-0.0246379 C 7.5135292,0.40722026 7.1908536,0.37681045 6.8469174,0.37681045 Z m 6.2196435,0.1223851 -0.02464,0.0129966 -2.930254,7.12261525 0.0066,0.00829 -0.0066,0.016409 0.02464,0.030946 0.259576,0.012996 0.02464,-0.012996 0.257932,-0.6543355 h 4.99857 l 0.246493,0.6412775 0.02464,0.012996 h 0.259574 l 0.02464,-0.030946 -0.0066,-0.016409 0.0066,-0.00829 -2.881279,-7.12261528 -0.02464,-0.0129966 z m 32.929839,0 -0.0196,0.0129966 -2.930259,7.12261525 0.0068,0.00829 -0.0068,0.016409 0.02457,0.030946 0.259544,0.012996 0.02457,-0.012996 0.257926,-0.6543355 h 4.998574 l 0.246498,0.6412775 0.0196,0.012996 h 0.264467 l 0.02457,-0.030946 -0.0068,-0.016409 0.0068,-0.00829 -2.881276,-7.12261528 -0.02457,-0.0129966 z m -27.036681,0.10442977 -0.02464,0.0262174 v 0.0246379 7.07366028 0.024638 l 0.02464,0.024638 h 0.233448 l 0.02464,-0.024638 V 7.7284724 1.1296517 l 5.343011,6.6347206 0.0196,0.012997 h 0.208961 l 0.02457,-0.024638 V 7.7280931 0.65443282 0.62979492 l -0.02457,-0.0262174 h -0.233453 l -0.02457,0.0262174 v 0.0246379 6.59881968 l -5.33812,-6.63635177 -0.01801,-0.0129966 z m 18.681784,0.0246379 -1.913223,0.001657 -0.02457,0.0262174 v 0.0227367 7.05081738 0.022737 l 0.02457,0.026217 h 0.241585 l 0.02457,-0.026217 V 7.7300236 4.9592998 h 1.893655 l 1.753255,2.8049906 0.02457,0.012997 h 0.284055 l 0.01804,-0.037537 -0.0068,-0.00965 0.0068,-0.014791 -1.764683,-2.8147775 c 0.544574,-0.1015526 0.98376,-0.3229573 1.296168,-0.6820768 0.322538,-0.3788142 0.486474,-0.8493424 0.486474,-1.4114685 0,-0.00371 1e-5,-0.0076 0,-0.011378 1.9e-5,-0.00439 0,-0.00848 0,-0.012997 0,-0.6503897 -0.214284,-1.1747937 -0.641547,-1.56159 C 38.916761,0.82625166 38.346994,0.62869319 37.641292,0.62869319 Z m -9.982446,0.0277871 -0.02457,0.0246379 v 0.0227367 6.96433218 0.022737 l 0.02457,0.026217 H 29.6812 c 0.672873,0 1.269014,-0.1469255 1.790793,-0.4438389 0.529636,-0.304806 0.938783,-0.7306779 1.227606,-1.2760343 0.263073,-0.4832996 0.406134,-1.0281373 0.435862,-1.6301219 0.0039,-0.080963 0.0078,-0.163313 0.0078,-0.2463906 -1.95e-4,-0.082474 -0.002,-0.1647356 -0.0068,-0.2447488 C 33.109233,3.2760276 32.977034,2.7454529 32.734855,2.289841 32.461895,1.7682177 32.070133,1.3681547 31.556232,1.0872349 31.050151,0.79818376 30.454273,0.65645494 29.773591,0.65645494 Z M 13.190154,0.93213708 15.567005,6.7248696 h -4.766762 z m 32.934734,0 2.378481,5.79273252 h -4.768388 z m -10.131006,0.00507 h 1.647147 c 0.633288,0 1.128966,0.17433332 1.498587,0.51237162 0.366949,0.3277708 0.554138,0.7753966 0.556673,1.3461992 -0.002,0.5708903 -0.189568,1.0219051 -0.556673,1.3576191 -0.369582,0.3301332 -0.870183,0.4979273 -1.511652,0.5058442 l -1.634082,-0.012997 z m -8.070851,0.0262174 h 1.851203 c 0.634244,0 1.182445,0.13433062 1.640614,0.39488582 0.466194,0.2527368 0.822594,0.6227401 1.067629,1.1047 0.221314,0.4147834 0.343345,0.8914764 0.370567,1.4343106 0.0029,0.06978 0.0068,0.1401649 0.0068,0.2121296 3.9e-5,0.00829 0,0.016087 0,0.024638 -3.81e-4,0.072753 -0.0029,0.1445846 -0.0068,0.2153832 -0.02905,0.5519775 -0.159714,1.0458449 -0.395049,1.4816354 -0.26902,0.498287 -0.645456,0.8869417 -1.12802,1.1716006 -0.474238,0.276545 -1.022721,0.4193599 -1.648775,0.4193599 l -1.758169,-0.012997 z m 13.629356,14.83918852 -0.01804,0.01958 -2.930249,7.122614 0.0068,0.0083 -0.0068,0.01641 0.02457,0.03094 0.257934,0.01138 0.02457,-0.01959 0.259573,-0.654337 h 4.998565 l 0.246488,0.64128 0.01804,0.01959 h 0.266076 l 0.02457,-0.02937 -0.0068,-0.01641 0.0068,-0.0083 -2.881286,-7.122615 -0.02457,-0.01958 z m -30.441977,0.10932 -3.3628538,0.0017 -0.018008,0.01958 v 0.02464 7.073661 0.02464 l 0.018008,0.02464 H 11.11041 l 0.02464,-0.02464 v -0.02464 -0.210489 -0.02464 l -0.02464,-0.02464 -3.0967611,0.013 V 19.62393 h 2.9547371 l 0.02464,-0.01801 v -0.02274 -0.217026 -0.02274 l -0.02464,-0.02622 H 8.0136489 v -3.09707 H 11.11041 l 0.02464,-0.02464 v -0.02464 -0.215382 -0.02464 z m 11.735702,0 -3.356323,0.0017 -0.02464,0.01958 v 0.02464 7.073661 0.02464 l 0.02464,0.02464 h 3.356323 l 0.02464,-0.02464 v -0.02464 -0.210489 -0.02464 l -0.02464,-0.02464 -3.091863,0.013 V 19.62393 h 2.949841 l 0.02464,-0.01801 v -0.02274 -0.217026 -0.02274 l -0.02464,-0.02622 h -2.949841 v -3.09707 h 3.091863 l 0.02464,-0.02464 v -0.02464 -0.215382 -0.02464 z m 13.116766,0 -3.362865,0.0017 -0.01804,0.01958 v 0.02464 7.073661 0.02464 l 0.01804,0.02464 h 3.362865 l 0.02457,-0.02464 v -0.02464 -0.210489 -0.02464 l -0.02457,-0.02464 -3.096769,0.013 V 19.62393 h 2.954731 l 0.02457,-0.01801 v -0.02274 -0.217026 -0.02274 l -0.02457,-0.02622 h -2.954731 v -3.09707 h 3.096769 l 0.02457,-0.02464 v -0.02464 -0.215382 -0.02464 z m 11.365135,0 -0.235062,0.0017 -0.02457,0.01958 v 0.02464 4.735354 0.02464 c 3.8e-4,0.0526 0.002,0.103795 0.0049,0.155002 0.02018,0.424927 0.123396,0.803717 0.310185,1.134071 0.217434,0.370321 0.523465,0.657323 0.925592,0.858302 0.402195,0.201015 0.871694,0.30187 1.400648,0.30187 0.521038,0 0.975346,-0.100788 1.369634,-0.30187 0.402176,-0.201016 0.709553,-0.487792 0.919069,-0.858302 0.217492,-0.37039 0.326487,-0.799717 0.326487,-1.28909 v -0.02464 -4.735356 -0.02464 l -0.02623,-0.01959 h -0.233475 l -0.02457,0.01959 v 0.02464 4.735356 c 0,0.67217 -0.212763,1.193855 -0.630129,1.579536 -0.417318,0.385731 -0.981703,0.579275 -1.702644,0.579275 -0.728955,0 -1.301754,-0.193469 -1.727135,-0.579275 -0.416878,-0.386242 -0.628501,-0.908994 -0.628501,-1.58117 v -4.735353 -0.02464 z m -46.55755623,0.0016 -0.0243359,0.01958 v 0.02464 7.07366 0.02464 l 0.0243359,0.02464 H 1.0104449 l 0.024638,-0.02464 v -0.02464 -2.411735 h 1.7532554 c 0.7298168,0 1.3165443,-0.214436 1.7516173,-0.641279 0.4430045,-0.426717 0.6660414,-0.996031 0.6660414,-1.701921 0,-0.0051 2.14e-5,-0.0098 0,-0.01479 -1.66e-5,-0.0031 2.44e-5,-0.0066 0,-0.0098 0,-0.04992 -0.00263,-0.09988 -0.00468,-0.14847 C 5.1826951,17.699114 5.0882781,17.341151 4.915667,17.02485 4.722305,16.6705 4.4454923,16.39727 4.083116,16.204078 3.728639,16.010799 3.3144768,15.91364 2.848985,15.91364 Z m 24.75287723,0.02464 -0.01804,0.01958 v 0.02464 7.049184 0.02464 l 0.01804,0.02464 h 0.241604 l 0.02457,-0.02464 v -0.02464 -2.76909 h 1.900177 l 1.751618,2.80499 0.0196,0.013 h 0.282417 l 0.02457,-0.03754 -0.0078,-0.013 0.0078,-0.01138 -1.769577,-2.81478 c 0.54472,-0.101553 0.988625,-0.322923 1.301072,-0.682072 0.322529,-0.378817 0.48157,-0.849346 0.48157,-1.411469 0,-0.0037 10e-6,-0.0076 0,-0.01138 1.9e-5,-0.0044 0,-0.0085 0,-0.013 0,-0.650399 -0.214285,-1.168264 -0.641566,-1.555063 C 28.712221,16.13599 28.142434,15.93843 27.436742,15.93843 Z m -8.242251,0.02464 -4.004407,0.0017 -0.02464,0.01801 v 0.02464 0.215382 0.02464 l 0.02464,0.02464 h 1.862628 v 6.760365 0.02464 l 0.02464,0.02464 h 0.235091 l 0.02464,-0.02464 v -0.02464 -6.760365 h 1.857732 l 0.01801,-0.02464 v -0.02469 -0.215381 -0.02464 z M 1.0349154,16.22225 h 1.8136542 c 0.6328088,0 1.1303828,0.190312 1.5002217,0.567851 h 0.00663 c 0.3754052,0.367433 0.5592834,0.862566 0.5615649,1.481635 -0.00273,0.62599 -0.1982272,1.11781 -0.5811516,1.484899 -0.3776418,0.369624 -0.8905964,0.554798 -1.5475645,0.554798 H 1.0349417 Z m 40.6480716,0.01959 2.376843,5.791099 h -4.768388 z m -15.893567,0.0066 h 1.647157 c 0.633278,0 1.135498,0.166187 1.505109,0.504212 0.366637,0.327491 0.552188,0.774557 0.555045,1.344567 -0.0019,0.570846 -0.18793,1.021882 -0.555045,1.357621 -0.369591,0.330066 -0.876725,0.504459 -1.518174,0.512371 l -1.634092,-0.013 z" /></svg>
