<?xml version="1.0" encoding="UTF-8" standalone="no"?>
<!-- Created with Inkscape (http://www.inkscape.org/) -->

<svg
   width="200.00015"
   height="312.74112"
   viewBox="0 0 52.91671 82.746082"
   version="1.1"
   id="svg5"
   xml:space="preserve"
   inkscape:version="1.2.1 (9c6d41e410, 2022-07-14)"
   sodipodi:docname="charte-graphique.svg"
   inkscape:export-filename="..\..\..\..\dev\cours\openclassrooms\projets\developpeur_web\session_8-portfolio\logo1.png"
   inkscape:export-xdpi="96"
   inkscape:export-ydpi="96"
   xmlns:inkscape="http://www.inkscape.org/namespaces/inkscape"
   xmlns:sodipodi="http://sodipodi.sourceforge.net/DTD/sodipodi-0.dtd"
   xmlns="http://www.w3.org/2000/svg"
   xmlns:svg="http://www.w3.org/2000/svg"><sodipodi:namedview
     id="namedview7"
     pagecolor="#ffffff"
     bordercolor="#000000"
     borderopacity="0.25"
     inkscape:showpageshadow="2"
     inkscape:pageopacity="0.0"
     inkscape:pagecheckerboard="0"
     inkscape:deskcolor="#d1d1d1"
     inkscape:document-units="mm"
     showgrid="false"
     inkscape:zoom="1.0746379"
     inkscape:cx="369.89204"
     inkscape:cy="50.714758"
     inkscape:window-width="1920"
     inkscape:window-height="1051"
     inkscape:window-x="-9"
     inkscape:window-y="-9"
     inkscape:window-maximized="1"
     inkscape:current-layer="svg5" /><defs
     id="defs2"><rect
       x="1243.0938"
       y="28.991379"
       width="108.89444"
       height="145.664"
       id="rect1127" /><inkscape:path-effect
       effect="fill_between_many"
       method="originald"
       linkedpaths="#path1878,0,1|#path1932,0,1"
       id="path-effect1940"
       is_visible="true"
       lpeversion="0"
       join="true"
       close="true"
       autoreverse="true" /></defs><ellipse
     style="fill:#36b4c5;fill-opacity:1;fill-rule:evenodd;stroke:none;stroke-width:0.200002;stroke-linecap:round;stroke-miterlimit:0;stroke-dasharray:none;stroke-opacity:1;paint-order:fill markers stroke"
     id="circle2091"
     cx="26.178776"
     cy="26.048538"
     rx="25.074417"
     ry="25.063711" /><path
     id="path2093"
     style="fill:#ffffff;fill-opacity:1;fill-rule:evenodd;stroke:none;stroke-width:0.200002;stroke-linecap:round;stroke-miterlimit:0;stroke-dasharray:none;stroke-opacity:1;paint-order:fill markers stroke"
     d="m 26.237034,3.9457234 c 0,0 -6.898425,12.0020746 -6.916874,12.0357556 l 25.105656,19.606445 z m -12.274222,9.3628516 0.02843,11.833221 31.629616,12.256712 z m 28.462802,4.980632 -4.876806,3.498409 c 0,0 8.301993,14.672935 8.31684,14.696393 z m -35.9891384,5.299784 -0.00292,14.819142 39.7469664,-0.0029 z" /><path
     id="path2095"
     style="color:#000000;-inkscape-font-specification:'dT Jakob Variable Concept Heavy';fill:#36b4c5;fill-opacity:1;fill-rule:evenodd;stroke:#ffffff;stroke-width:0.015;stroke-linecap:square;stroke-linejoin:bevel;stroke-miterlimit:0;stroke-dasharray:none;stroke-opacity:1;paint-order:stroke fill markers"
     d="m 6.6002216,58.864851 c -0.4093631,0 -0.7747151,0.0738 -1.0970027,0.226812 -0.3144135,0.145057 -0.5633709,0.361774 -0.7411325,0.636384 -0.1599943,0.239917 -0.2454523,0.51178 -0.2611848,0.815875 -0.00176,0.03415 -0.00312,0.0678 -0.00312,0.10282 0,0.0022 -9.7e-6,0.0044 0,0.0066 -5.36e-5,0.006 0,0.01202 0,0.01801 0,0.29047 0.071467,0.558654 0.2089652,0.801189 0.1445533,0.240833 0.3181956,0.44999 0.519119,0.634753 v 0.0066 c 0.2077338,0.175691 0.4694783,0.377651 0.7884733,0.6168 l 0.00663,0.013 h 0.00663 c 0.3184002,0.23076 0.5700916,0.427202 0.7525584,0.585797 0.1813876,0.157667 0.3323437,0.33857 0.4505556,0.543375 0.1236037,0.200762 0.1845153,0.42683 0.1860948,0.673911 -0.00341,0.504988 -0.1822738,0.893803 -0.532178,1.181391 -0.3533635,0.290408 -0.8417059,0.43894 -1.4675709,0.43894 -0.4443264,0 -0.8674018,-0.05552 -1.2716765,-0.16644 l -0.030966,0.01799 -0.066943,0.215383 0.00468,0.01138 -0.00468,0.013 0.011378,0.03094 c 0.4640671,0.127976 0.917612,0.190911 1.3581983,0.190911 0.6972276,0 1.2535884,-0.176955 1.6650985,-0.523791 0.4115149,-0.34681 0.6170657,-0.813043 0.6170657,-1.400044 0,-0.0034 1.66e-5,-0.0063 0,-0.0098 2.93e-5,-0.0051 0,-0.0097 0,-0.01479 0,-0.290754 -0.069761,-0.55504 -0.2154733,-0.789768 C 7.3470208,63.501056 7.178899,63.290951 6.9776811,63.113949 6.7777482,62.938101 6.5197458,62.729848 6.2006338,62.49062 5.7153519,62.14073 5.3556041,61.839079 5.1264839,61.578471 4.902069,61.323177 4.7899634,61.016529 4.7869331,60.661424 c 0.00244,-0.443479 0.1672365,-0.796093 0.494634,-1.068794 0.3378572,-0.274905 0.7747717,-0.414466 1.3206494,-0.414466 0.3095814,0 0.6124491,0.02084 0.9060095,0.06851 L 7.532864,59.228664 7.581838,59.00021 7.578718,58.99511 7.581838,58.97553 7.56383,58.95089 C 7.2672967,58.89485 6.944622,58.86444 6.6006857,58.86444 Z m 6.2196294,0.122385 -0.02464,0.013 -2.9302456,7.122599 0.00663,0.0083 -0.00663,0.01641 0.024638,0.03095 0.2595746,0.013 0.02464,-0.013 0.257931,-0.654334 h 4.998558 l 0.246493,0.641276 0.02464,0.013 h 0.259574 l 0.02464,-0.03095 -0.0066,-0.01641 0.0066,-0.0083 -2.881272,-7.122599 -0.02464,-0.013 z m 32.92976,0 -0.01959,0.013 -2.930245,7.122599 0.0066,0.0083 -0.0066,0.01641 0.02464,0.03095 0.259541,0.013 0.02464,-0.013 0.25793,-0.654334 h 4.998562 l 0.246494,0.641276 0.01959,0.013 h 0.264469 l 0.02464,-0.03095 -0.0066,-0.01641 0.0066,-0.0083 -2.881271,-7.122599 -0.02464,-0.013 z m -27.036616,0.104429 -0.02464,0.02622 v 0.02464 7.073644 0.02464 l 0.02464,0.02464 h 0.233448 l 0.02464,-0.02464 v -0.02464 -6.598805 l 5.343006,6.634705 0.01959,0.013 h 0.208967 l 0.02464,-0.02464 v -0.02464 -7.073644 -0.02464 l -0.02464,-0.02622 h -0.233449 l -0.02464,0.02622 v 0.02464 6.598805 l -5.338108,-6.636337 -0.01801,-0.013 z m 18.68174,0.02464 -1.913226,0.0017 -0.02464,0.02622 v 0.02274 7.050801 0.02274 l 0.02464,0.02622 h 0.241598 l 0.02464,-0.02622 v -0.02274 -2.770717 h 1.893642 l 1.75325,2.804984 0.02464,0.013 h 0.284056 l 0.01801,-0.03754 -0.0066,-0.0097 0.0066,-0.01479 -1.764679,-2.814771 c 0.544567,-0.101552 0.983754,-0.322956 1.296165,-0.682075 0.322532,-0.378813 0.486471,-0.84934 0.486471,-1.411465 0,-0.0037 1.5e-5,-0.0076 0,-0.01138 1.9e-5,-0.0044 0,-0.0085 0,-0.013 0,-0.650388 -0.214274,-1.174791 -0.641551,-1.561586 -0.427176,-0.394767 -0.99695,-0.592325 -1.702647,-0.592325 z m -9.982421,0.02779 -0.02464,0.02464 v 0.02274 6.964317 0.02274 l 0.02464,0.02622 h 2.022605 c 0.672871,0 1.26901,-0.146925 1.790795,-0.443838 0.529645,-0.304805 0.93878,-0.730676 1.227601,-1.276031 0.26308,-0.483298 0.406141,-1.028135 0.435863,-1.630118 0.0044,-0.08096 0.008,-0.163313 0.0083,-0.24639 -2.01e-4,-0.08247 -0.0024,-0.164735 -0.0066,-0.244748 -0.02717,-0.599879 -0.159408,-1.130453 -0.401582,-1.586064 -0.272967,-0.521622 -0.664725,-0.921684 -1.178627,-1.202603 -0.506075,-0.289051 -1.101957,-0.430779 -1.782637,-0.430779 z m -14.468396,0.275755 2.376845,5.792719 h -4.766751 z m 32.934657,0 2.378477,5.792719 H 43.48867 Z m -10.13098,0.0051 h 1.64714 c 0.633291,0 1.128974,0.174333 1.49859,0.51237 0.366944,0.32777 0.554129,0.775395 0.556667,1.346196 -0.0024,0.570889 -0.189572,1.021903 -0.556667,1.357616 -0.369592,0.330133 -0.870192,0.497927 -1.511647,0.505843 l -1.634083,-0.013 z m -8.070828,0.02622 h 1.851199 c 0.634238,0 1.182442,0.13433 1.64061,0.394885 0.466191,0.252736 0.822586,0.622739 1.067622,1.104698 0.221319,0.414782 0.343344,0.891474 0.370568,1.434307 0.0031,0.06978 0.0066,0.140164 0.0066,0.212129 4.1e-5,0.0083 0,0.01609 0,0.02464 -3.79e-4,0.07275 -0.0027,0.144584 -0.0066,0.215382 -0.02906,0.551977 -0.159718,1.045843 -0.395053,1.481632 -0.269018,0.498286 -0.645449,0.88694 -1.128021,1.171598 -0.474233,0.276545 -1.022718,0.419359 -1.648773,0.419359 l -1.758152,-0.013 z m 13.62932,14.839155 -0.01801,0.01958 -2.930245,7.122598 0.0066,0.0083 -0.0066,0.01641 0.02464,0.03094 0.257931,0.01138 0.02464,-0.01959 0.259575,-0.654334 h 4.998555 l 0.246496,0.641278 0.01801,0.01959 h 0.266082 l 0.02464,-0.02937 -0.0066,-0.01641 0.0066,-0.0083 -2.881272,-7.122599 -0.02464,-0.01958 z m -30.441908,0.10932 -3.3628462,0.0017 -0.018008,0.01958 v 0.02464 7.073644 0.02464 l 0.018008,0.02464 h 3.3628462 l 0.02464,-0.02464 v -0.02464 -0.210488 -0.02464 l -0.02464,-0.02464 -3.0967542,0.013 v -3.160762 h 2.9547302 l 0.02464,-0.01801 v -0.02274 -0.217026 -0.02274 l -0.02464,-0.02622 H 7.7674248 V 74.70788 h 3.0967542 l 0.02464,-0.02464 v -0.02464 -0.215382 -0.02464 z m 11.735674,0 -3.356315,0.0017 -0.02464,0.01958 v 0.02464 7.073644 0.02464 l 0.02464,0.02464 h 3.356315 l 0.02464,-0.02464 v -0.02464 -0.210488 -0.02464 l -0.02464,-0.02464 -3.091856,0.013 v -3.160762 h 2.949835 l 0.02464,-0.01801 v -0.02274 -0.217026 -0.02274 l -0.02464,-0.02622 H 19.507997 V 74.70788 h 3.091856 l 0.02464,-0.02464 v -0.02464 -0.215382 -0.02464 z m 13.116728,0 -3.362846,0.0017 -0.01801,0.01958 v 0.02464 7.073644 0.02464 l 0.01801,0.02464 h 3.362846 l 0.02464,-0.02464 v -0.02464 -0.210488 -0.02464 l -0.02464,-0.02464 -3.096756,0.013 v -3.160762 h 2.954732 l 0.02464,-0.01801 v -0.02274 -0.217026 -0.02274 l -0.02464,-0.02622 H 32.619825 V 74.70788 h 3.096756 l 0.02464,-0.02464 v -0.02464 -0.215382 -0.02464 z m 11.365108,0 -0.23506,0.0017 -0.02464,0.01958 v 0.02464 4.735343 0.02464 c 3.88e-4,0.0526 0.0021,0.103795 0.0051,0.155002 0.02022,0.424926 0.123393,0.803715 0.31018,1.134068 0.217433,0.37032 0.523464,0.657321 0.925597,0.858301 0.402188,0.201014 0.871689,0.301869 1.400641,0.301869 0.521034,0 0.975346,-0.100788 1.369625,-0.301869 0.402185,-0.201016 0.709564,-0.487791 0.919069,-0.858301 0.217497,-0.370388 0.326491,-0.799715 0.326491,-1.289086 v -0.02464 -4.735346 -0.02464 l -0.02622,-0.01959 h -0.23345 l -0.02464,0.01959 v 0.02464 4.735346 c 0,0.672168 -0.212758,1.193852 -0.630128,1.579532 -0.41732,0.38573 -0.981703,0.579274 -1.702644,0.579274 -0.728944,0 -1.301742,-0.193469 -1.727129,-0.579274 -0.416875,-0.386241 -0.628495,-0.908992 -0.628495,-1.581166 v -4.735343 -0.02464 z m -46.55743926,0.0016 -0.0243358,0.01958 v 0.02464 7.073644 0.02464 l 0.0243358,0.02464 h 0.2399875 l 0.0246381,-0.02464 v -0.02464 -2.41173 H 2.5421267 c 0.7298158,0 1.3165417,-0.214436 1.7516134,-0.641278 0.4430024,-0.426716 0.6660396,-0.996028 0.6660396,-1.701917 0,-0.0051 2.15e-5,-0.0098 0,-0.01479 -1.65e-5,-0.0031 2.44e-5,-0.0066 0,-0.0098 0,-0.04992 -0.00263,-0.09988 -0.00468,-0.148469 C 4.9364579,76.186863 4.8420436,75.828901 4.6694329,75.512601 4.4760715,75.158252 4.1992595,74.885022 3.8368841,74.691831 3.4824082,74.498552 3.0682461,74.401393 2.6027556,74.401393 Z m 24.75282126,0.02464 -0.01801,0.01958 v 0.02464 7.049168 0.02464 l 0.01801,0.02464 h 0.241598 l 0.02464,-0.02464 v -0.02464 -2.769084 h 1.900172 l 1.751617,2.804984 0.01959,0.013 h 0.282413 l 0.02464,-0.03754 -0.0083,-0.013 0.0083,-0.01138 -1.769573,-2.814774 c 0.544719,-0.101552 0.988623,-0.322921 1.301061,-0.68207 0.322535,-0.378816 0.481571,-0.849343 0.481571,-1.411465 0,-0.0037 1.5e-5,-0.0076 0,-0.01138 2.2e-5,-0.0044 0,-0.0085 0,-0.013 0,-0.650397 -0.214274,-1.16826 -0.641552,-1.555059 -0.427173,-0.394767 -0.99695,-0.592327 -1.702642,-0.592327 z m -8.242234,0.02464 -4.004397,0.0017 -0.02464,0.01801 v 0.02464 0.215381 0.02464 l 0.02464,0.02464 h 1.862623 v 6.76035 0.02464 l 0.02464,0.02464 h 0.235091 l 0.02464,-0.02464 v -0.02464 -6.76035 h 1.857728 l 0.01801,-0.02464 v -0.02469 -0.215381 -0.02464 z M 0.78870759,74.710005 H 2.6023578 c 0.632807,0 1.1303806,0.190312 1.5002185,0.56785 h 0.00663 c 0.3754042,0.367432 0.5592818,0.862564 0.5615623,1.481631 -0.00273,0.625989 -0.1982256,1.117808 -0.5811499,1.484896 -0.3776408,0.369623 -0.8905939,0.554796 -1.5475603,0.554796 H 0.78870369 Z m 40.64797441,0.01959 2.376846,5.791085 h -4.768386 z m -15.893524,0.0066 h 1.647143 c 0.633282,0 1.135499,0.166186 1.505115,0.504211 0.366636,0.32749 0.552188,0.774555 0.555034,1.344564 -0.0024,0.570844 -0.187928,1.021879 -0.555034,1.357618 -0.369593,0.330065 -0.876718,0.504457 -1.518174,0.512369 l -1.634084,-0.013 z" /></svg>
