<?xml version="1.0" encoding="UTF-8" standalone="no"?>
<!-- Created with Inkscape (http://www.inkscape.org/) -->

<svg
   width="13.845015mm"
   height="13.845013mm"
   viewBox="0 0 13.845015 13.845013"
   version="1.1"
   id="svg5"
   xml:space="preserve"
   inkscape:version="1.2.1 (9c6d41e410, 2022-07-14)"
   sodipodi:docname="logo.svg"
   xmlns:inkscape="http://www.inkscape.org/namespaces/inkscape"
   xmlns:sodipodi="http://sodipodi.sourceforge.net/DTD/sodipodi-0.dtd"
   xmlns="http://www.w3.org/2000/svg"
   xmlns:svg="http://www.w3.org/2000/svg"><sodipodi:namedview
     id="namedview7"
     pagecolor="#ffffff"
     bordercolor="#000000"
     borderopacity="0.25"
     inkscape:showpageshadow="2"
     inkscape:pageopacity="0.0"
     inkscape:pagecheckerboard="0"
     inkscape:deskcolor="#d1d1d1"
     inkscape:document-units="mm"
     showgrid="false"
     inkscape:zoom="8.8895462"
     inkscape:cx="11.811627"
     inkscape:cy="13.780231"
     inkscape:window-width="1920"
     inkscape:window-height="1051"
     inkscape:window-x="-9"
     inkscape:window-y="-9"
     inkscape:window-maximized="1"
     inkscape:current-layer="svg5" /><defs
     id="defs2" /><path
     id="path2248"
     style="display:inline;fill:#007980;fill-opacity:1;fill-rule:evenodd;stroke:none;stroke-width:0.0999997;stroke-linecap:round;stroke-miterlimit:0;paint-order:fill markers stroke"
     inkscape:label="logo"
     d="M 6.9671527,0.20834397 A 6.6695109,6.6695109 0 0 0 0.29763424,6.8778614 6.6695109,6.6695109 0 0 0 6.9671527,13.547379 a 6.6695109,6.6695109 0 0 0 0.27554,-0.009 L 7.2410163,1.0879654 C 10.731786,1.3586674 13.06843,4.510474 12.759575,7.5382346 l -4.3208701,-0.00756 0.010848,5.8462484 A 6.6695109,6.6695109 0 0 0 13.63667,6.8778614 6.6695109,6.6695109 0 0 0 6.9671527,0.20834397 Z m -0.072217,0.88392953 0.00167,4.9929009 H 5.7233566 l 0.00448,-3.6629397 C 4.0712302,2.8024368 2.5182508,4.5277655 2.3732732,6.3621639 l 4.5249948,0.00176 -0.00112,6.3530781 C 4.4719147,12.677963 1.71907,10.403159 1.2276328,7.8014497 l 1.1573799,-0.00175 c 0.3546667,1.523471 2.0399305,3.0603493 3.3358848,3.5194233 L 5.723343,7.5300663 1.199266,7.5289512 C 0.87692054,4.6311158 3.3151503,1.2080217 6.8949313,1.0922896 Z m 1.5490248,1.328237 v 3.9433533 l 3.3590665,-0.00133 C 11.609501,4.3182114 9.9542974,2.7834898 8.443961,2.4204901 Z" /><path
     id="path2248-3"
     style="display:none;fill:#007980;fill-opacity:1;fill-rule:evenodd;stroke:none;stroke-width:0.0999992;stroke-linecap:round;stroke-miterlimit:0;paint-order:fill markers stroke"
     inkscape:label="favicon"
     d="m 15.681094,10.169243 a 2.4492952,2.4492952 0 0 0 -2.449297,2.449297 2.4492952,2.4492952 0 0 0 2.449297,2.449297 2.4492952,2.4492952 0 0 0 0.101189,-0.0034 l -6.14e-4,-4.57221 c 1.281939,0.09941 2.140043,1.256874 2.026619,2.368782 l -1.586786,-0.0028 0.004,2.146963 a 2.4492952,2.4492952 0 0 0 1.9049,-2.386697 2.4492952,2.4492952 0 0 0 -2.449298,-2.449297 z m -0.02652,0.324611 6.14e-4,1.833582 h -0.430861 l 0.0016,-1.345169 c -0.60837,0.139624 -1.178683,0.773229 -1.231924,1.44689 l 1.661748,6.44e-4 -4.11e-4,2.333089 c -0.890591,-0.01434 -1.901539,-0.849728 -2.082013,-1.805174 l 0.425033,-6.43e-4 c 0.130247,0.559476 0.749139,1.123874 1.225063,1.292464 l 8.96e-4,-1.391485 -1.661411,-4.11e-4 c -0.118376,-1.06419 0.777034,-2.32128 2.091664,-2.363781 z m 0.56886,0.487779 v 1.448148 l 1.233576,-4.89e-4 C 17.38594,11.67854 16.778086,11.114933 16.223434,10.981625 Z" /></svg>
